<svg xmlns="http://www.w3.org/2000/svg">
  <symbol id="andy" viewBox="0 0 380 600">
	<path fill="none" stroke="#1D1C1A" stroke-width="5.436" stroke-miterlimit="10" d="M1,364.3"/>
	<path opacity="0.2" fill="#1D1D1B" d="M175.3,541.3c-24.5,1.4-82.2,8.1-102.5,25c-20.3,16.9,47.1,39.3,120.3,27.4
		c73.2-11.8,118.6-36.9,84.4-44.8C243.2,541,202.4,539.7,175.3,541.3z"/>
	<path fill="#FFFFFF" d="M375.8,367.5c-0.6-4.7-14.5-2.8-21.2-1.6c6.1-1.3,17.8-4.3,15.5-8.1c-3.1-5.1-23.1,1.1-27.6,4.7l-0.6,0.1
		c0.3-2.6,0.7-5.5,1-8.3c0.6-5.6-3.3-11.5-9.1-7.3c0.6,13.1-6.9,18.1-6.9,18.1s-19.6-0.7-41.6-13.7c-0.4-0.2-0.8-0.5-1.2-0.7
		c-16.4-8.1-36.7-24.1-36.7-24.1l11.7-2.8L248,300.3l-13.8-1.9c55.5-124.2,34.6-193.6,6.5-281.5C175.3-8,91.5,19.8,80.5,36.5
		c-0.2-4.6-1.5-13.9-7.8-15c-8.3-1.5-18.9,4.9-18.9,4.9s14-0.4,17,1.8c1.1,0.8,2.8,2.6,4.5,4.5c-1.7-1.1-3.9-1.7-6.5-0.8
		c-7.3,2.5-11.1,8.9-11.1,8.9l21.7-2.5c-16,33.7-14,99.9-14,99.9s-33.8-30.5-32.1-1.4c2.4,41.8,32.5,25,32.5,25
		c9,71.6,38.4,131.2,38.4,131.2l-3.4,11.7c0,0-30.5,20.5-34.9,66.9c-0.1,0.9-0.2,4.2,1.5,8c0,0.3-0.1,0.6-0.1,0.8
		c-1.4,4.6-3.8,13.1-5.5,22.1c-12.2-14.6,0.8-30.7-11.5-36.8c-16.3-8.1-4.7,18.7-6.1,32.5c-1.3,12.9-40.5,16.3-36.9,29.6
		c2.4,8.6,12.7,5.4,21.6,0.7c-10.9,7.6-23.4,18.1-17.9,23.2c5.3,4.8,20.5-7.1,28.1-13.6c-7.3,6.7-20.8,20.2-16.1,24.2
		c5.8,5,24.7-14.2,27.4-17c-2.3,2.4-16,17.2-11.9,20.2c4.5,3.3,24.9-14.3,26.6-18.6c1.3-3.2,5.1-8.3,3.5-14.5
		c7.9-3.5,18.5-15.5,20.5-17.9c-0.2,8.9,0.4,19.1,2.3,30.3c8.2,48,48.4,88.6,59.2,98c3.6,3.1,7.6,2.8,11.6,0.4
		c1.7-11.8,13.1-48.3,26-45.6c11.3,2.4,7.1,34.6,7.5,45.4c4.7,1.2,6,1.2,8.9-2.2c0,0,57.2-72.5,63.5-104.4
		c4.1-20.5-4.2-48.4-10.6-65.9h0l20,4.8c0.5-0.5,1.5-1.6,1.5-1.6s25.9,8.2,44.2,8.5c7.9,8.6,19,1.1,24.6,1.5
		c6.5,0.5,15.6,7.3,17.3,3.2c1.6-3.7-13.6-8.5-13.6-8.5s20.3,5.5,21,0c0.6-4.8-14.5-5.3-19.5-5.4
		C358.7,373.2,376.4,372.7,375.8,367.5z"/>
		<path fill="#1D1C1A" d="M284.5,350.7l2.6,1.2c0.9,0.4,1.7,0.8,2.6,1.2c0.9,0.4,1.7,0.7,2.6,1.1c0.9,0.4,1.7,0.7,2.6,1.1
			c0.9,0.3,1.7,0.7,2.6,1l2.7,1c0.9,0.3,1.8,0.6,2.7,0.9c0.9,0.3,1.8,0.6,2.7,0.9l2.7,0.8l2.7,0.7c0.9,0.3,1.8,0.4,2.7,0.7
			c0.9,0.2,1.8,0.4,2.7,0.6c1.8,0.4,3.7,0.7,5.5,0.9c0.9,0.1,1.8,0.3,2.8,0.4c0.9,0.1,1.9,0.2,2.7,0.2l-1.1,0.3
			c0.2-0.1,0.5-0.4,0.7-0.6c0.3-0.2,0.5-0.5,0.8-0.8c0.2-0.3,0.5-0.6,0.7-0.9c0.2-0.3,0.5-0.6,0.7-0.9c0.2-0.3,0.4-0.6,0.6-1
			c0.2-0.3,0.4-0.7,0.5-1c0.2-0.3,0.3-0.7,0.5-1c0.1-0.4,0.3-0.7,0.4-1.1l0.3-1.1c0.1-0.4,0.2-0.7,0.3-1.1c0.1-0.4,0.2-0.7,0.2-1.1
			l0.2-1.2c0.1-0.8,0.2-1.6,0.2-2.3c0-0.8,0-1.6,0-2.4l0-1l0.7-0.4c0.7-0.4,1.4-0.8,2.2-1.1c0.8-0.3,1.7-0.5,2.6-0.5
			c0.5,0,0.9,0.1,1.4,0.2c0.4,0.2,0.9,0.3,1.3,0.6c0.4,0.2,0.8,0.5,1.1,0.8c0.3,0.3,0.6,0.6,0.9,0.9c0.5,0.7,0.9,1.4,1.2,2.1
			c0.1,0.4,0.2,0.7,0.4,1.1c0.1,0.4,0.2,0.8,0.2,1.1c0.1,0.4,0.1,0.8,0.1,1.1c0,0.4,0,0.8,0,1.1c0,0.8-0.2,1.5-0.3,2.2
			c-0.4,2.7-0.9,5.4-1.4,8.1c-0.5,2.7-1,5.4-1.6,8c0.1-2.7,0.2-5.5,0.4-8.2c0.2-2.7,0.3-5.5,0.5-8.2c0.1-0.7,0.1-1.3,0.1-1.9
			c0-0.6-0.1-1.2-0.3-1.8c-0.1-0.3-0.2-0.6-0.2-0.9c-0.1-0.3-0.2-0.6-0.3-0.8c-0.3-0.5-0.5-1-0.9-1.4c-0.2-0.2-0.4-0.4-0.6-0.5
			c-0.2-0.2-0.4-0.3-0.6-0.4c-0.2-0.1-0.4-0.1-0.6-0.2c-0.2,0-0.4-0.1-0.7,0c-0.4,0-0.9,0.1-1.4,0.3c-0.5,0.2-0.9,0.5-1.4,0.8
			l0.7-1.4c0,0.9,0.1,1.8,0.1,2.6c-0.1,0.9,0,1.8-0.2,2.7l-0.2,1.3c0,0.4-0.2,0.9-0.3,1.3c-0.1,0.4-0.2,0.9-0.3,1.3l-0.4,1.3
			c-0.1,0.4-0.3,0.8-0.5,1.3c-0.2,0.4-0.4,0.8-0.5,1.2c-0.2,0.4-0.4,0.8-0.6,1.2c-0.2,0.4-0.4,0.8-0.7,1.2c-0.5,0.8-1.1,1.5-1.7,2.2
			c-0.3,0.3-0.6,0.7-1,1c-0.4,0.3-0.7,0.6-1.2,1l-0.5,0.3l-0.6,0c-1.1-0.1-2-0.2-3-0.3c-1-0.1-1.9-0.3-2.9-0.4
			c-1-0.2-1.9-0.3-2.9-0.5c-0.9-0.2-1.9-0.4-2.8-0.6c-0.9-0.2-1.9-0.5-2.8-0.7c-0.9-0.3-1.9-0.5-2.8-0.8l-2.7-0.9l-2.7-1
			c-0.9-0.3-1.8-0.7-2.7-1.1c-0.9-0.4-1.8-0.7-2.6-1.2l-2.6-1.2c-0.9-0.4-1.7-0.9-2.5-1.3c-0.8-0.5-1.7-0.9-2.5-1.4
			c-0.8-0.5-1.6-1-2.5-1.5c-0.8-0.5-1.6-1-2.4-1.6L284.5,350.7z"/>
		<path fill="#1D1C1A" d="M234.3,156.8c0.7,0.8,1.3,1.6,2,2.3l0.9,1.2c0.3,0.4,0.7,0.8,0.8,1.2c0.2,0.5,0.4,0.9,0.6,1.3l0.7,1.3
			l1.3,2.7l5.2,10.7l0.5,1l-0.9,0.6l-8.1,5.2l-2,1.3c-0.3,0.2-0.7,0.4-1,0.7c-0.3,0.3-0.7,0.4-1.1,0.5c-1.5,0.6-3.1,1.2-4.7,1.7
			c1.1-1.2,2.3-2.4,3.5-3.5c0.3-0.3,0.6-0.6,1-0.8c0.3-0.2,0.7-0.4,1-0.6l2-1.3l8.1-5.2l-0.4,1.6l-5.2-10.7l-1.3-2.7l-0.7-1.3
			c-0.2-0.4-0.4-0.9-0.7-1.3c-0.3-0.4-0.3-0.9-0.5-1.4l-0.4-1.5C234.7,158.8,234.4,157.8,234.3,156.8z"/>
	<path fill="none" stroke="#1D1C1A" stroke-width="5.436" stroke-miterlimit="10" d="M347.5,364.3"/>
		<path fill="#1D1C1A" d="M241,19.7c-3.3-0.5-6.7-0.6-10.1-0.8c-3.4-0.1-6.7-0.1-10.1-0.1c-3.4,0.1-6.7,0.3-10.1,0.5
			c-3.4,0.3-6.7,0.7-10,0.9c-3.3,0.3-6.7,0.7-10,1.2c-3.3,0.5-6.6,1.1-9.9,1.7c-3.3,0.6-6.6,1.4-9.8,2.2l-4.9,1.3l-4.9,1.4l-4.8,1.5
			l-4.8,1.6l-9.5,3.4c-3.3,1.1-6.5,2.1-9.8,2.9c-3.3,0.9-6.6,1.6-10,2.2c-6.7,1.2-13.6,1.8-20.5,1.4c-3.4-0.2-6.9-0.7-10.2-1.6
			c-1.7-0.4-3.3-1-5-1.6c-0.8-0.3-1.6-0.7-2.4-1.1c-0.8-0.4-1.5-0.8-2.4-1.4c-0.5-0.4-0.7-1.2-0.3-1.7c0.4-0.5,1.1-0.6,1.6-0.3l0,0
			c2,1.3,3.8,2.6,5.6,4.1c1.8,1.4,3.5,3,5.2,4.6c1.6,1.6,3.2,3.4,4.6,5.3c1.4,1.9,2.6,4,3.3,6.4c0.4,1.2,0.6,2.4,0.6,3.7
			c0,0.5,0,1.2-0.1,1.8c0,0.6-0.1,1.2-0.2,1.8c-0.3,2.3-0.9,4.6-1.6,6.8c-1.4,4.4-3.1,8.6-5,12.8c-0.9,2.1-1.9,4.1-2.9,6.2
			c-1,2-2,4.1-3.1,6.1c-1,2-2.1,4-3.3,6c-1.2,2-2.3,3.9-3.5,5.8c-2.4,3.9-4.8,7.7-7.3,11.5c-2.5,3.8-5,7.6-7.6,11.3
			c2.3-3.9,4.5-7.8,6.8-11.8c2.2-3.9,4.4-7.9,6.5-11.9c1.1-2,2.1-4,3.1-6c1-2,2-4,3.1-6c1.1-2,2.1-4,3.1-6c1-2,2-4.1,2.9-6.1
			c1.8-4.1,3.5-8.3,4.9-12.5c0.7-2.1,1.2-4.3,1.5-6.4c0.1-0.5,0.1-1.1,0.2-1.6c0-0.5,0.1-1,0-1.6c0-1-0.2-2-0.5-3
			c-0.6-2-1.7-3.9-2.9-5.6c-1.3-1.8-2.7-3.4-4.3-5c-1.6-1.6-3.2-3-5-4.4c-1.7-1.4-3.6-2.7-5.4-3.9l1.4-2c0.5,0.4,1.3,0.8,2,1.2
			c0.7,0.4,1.5,0.7,2.2,1c1.5,0.6,3.1,1.1,4.7,1.5c3.2,0.8,6.5,1.3,9.8,1.5c6.6,0.4,13.3-0.2,19.9-1.3c3.3-0.6,6.6-1.3,9.8-2.2
			c3.2-0.8,6.4-1.8,9.6-2.9l9.6-3.4l4.8-1.6l4.9-1.5l4.9-1.4l4.9-1.3c3.3-0.8,6.6-1.5,10-2.2c3.3-0.6,6.7-1.2,10-1.7
			c3.4-0.5,6.7-0.9,10.1-1.3c3.4-0.4,6.8-0.5,10.2-0.5c3.4,0,6.8,0,10.2,0.1s6.8,0.4,10.1,0.7C234.4,18.5,237.7,19,241,19.7z"/>
		<path fill="#1D1C1A" d="M203.5,220.1c-1.5,1.3-2.9,2.7-4.3,4.1c-1.4,1.4-2.8,2.8-4.1,4.3c-0.7,0.7-1.3,1.4-2,2.2
			c-0.6,0.7-1.3,1.5-1.9,2.2c-1.4,1.4-2.6,2.9-3.8,4.4c-1.2,1.5-2.2,3.1-3,4.8c-0.4,0.8-0.7,1.7-0.9,2.5c-0.2,0.8-0.2,1.7,0,2.4
			c0.2,0.6,0.7,1.6,1.1,2.4c0.5,0.8,1,1.6,1.6,2.3c1.1,1.5,2.4,2.9,3.8,4.2c1.4,1.3,2.9,2.4,4.5,3.4c1.6,1,3.3,1.8,5.1,2.3
			c1.8,0.5,3.6,0.8,5.3,0.5c1.8-0.2,3.4-0.9,4.9-2c0.4-0.3,0.7-0.6,1-0.8l0.9-1l1.9-2.2c1.3-1.5,2.5-3,3.7-4.5
			c1.2-1.5,2.4-3.1,3.4-4.7c0.6-0.8,1-1.6,1.5-2.4c0.5-0.8,0.9-1.7,1.3-2.4l1.2,1.6c-1.6,0-3.1,0-4.6-0.1c-1.5-0.1-3-0.2-4.6-0.3
			c-1.5-0.2-3-0.4-4.5-0.6c-1.5-0.2-3-0.6-4.5-0.9c-0.8-0.1-1.5-0.4-2.2-0.7c-0.7-0.3-1.4-0.6-2.1-0.9c-0.7-0.3-1.4-0.7-2.1-1
			c-0.7-0.4-1.4-0.8-2-1.2c-0.6-0.4-1.3-0.9-1.9-1.4c-0.3-0.2-0.6-0.5-0.9-0.8c-0.3-0.3-0.6-0.5-0.8-0.8c-0.5-0.6-1-1.2-1.3-1.9
			c-0.2-0.3-0.4-0.7-0.5-1l-0.4-1.1l0.6,1c0.2,0.3,0.4,0.6,0.7,0.9c0.5,0.6,1,1.1,1.6,1.6c0.3,0.3,0.6,0.5,0.9,0.7
			c0.3,0.2,0.6,0.4,0.9,0.6c0.6,0.4,1.3,0.7,1.9,1c0.7,0.3,1.3,0.6,2,0.8c0.7,0.2,1.4,0.5,2.1,0.7c0.7,0.2,1.4,0.4,2.1,0.5
			c0.7,0.1,1.4,0.3,2.1,0.5c1.4,0.4,2.9,0.7,4.3,0.9c1.5,0.2,2.9,0.4,4.4,0.6c1.5,0.1,2.9,0.3,4.4,0.3c1.5,0.1,3,0.1,4.4,0.1l1.9,0
			l-0.7,1.7c-0.4,1.1-0.9,1.9-1.4,2.8c-0.5,0.9-1,1.7-1.6,2.6c-1.1,1.7-2.3,3.3-3.5,4.9c-1.3,1.6-2.5,3.2-3.8,4.6l-1.9,2.2
			c-0.4,0.4-0.7,0.8-1.1,1.2c-0.4,0.3-0.8,0.7-1.2,1c-1.7,1.3-3.8,2.2-6,2.4c-2.2,0.3-4.3,0-6.3-0.6c-2-0.6-3.9-1.5-5.6-2.6
			c-1.7-1.1-3.4-2.3-4.9-3.7c-1.5-1.4-2.9-2.9-4.1-4.5c-0.6-0.8-1.2-1.7-1.7-2.6c-0.3-0.4-0.5-1-0.7-1.4c-0.2-0.4-0.5-1-0.6-1.6
			c-0.3-1.2-0.2-2.4,0-3.5c0.3-1.1,0.6-2.1,1.1-3c0.9-1.9,2-3.6,3.3-5.2c1.2-1.6,2.6-3.1,3.9-4.6c0.7-0.8,1.4-1.4,2.2-2.1
			c0.8-0.7,1.5-1.3,2.3-1.9C197,224.6,200.2,222.2,203.5,220.1z"/>
	<path fill="#1D1C1A" d="M289.4,111.3l-60.8,6.6l-4.5,5.1l-6.1-4.4l-77.7-5.2l-8.3,11l-75.9,3.4l12.3,11.7l64.8-8.1l14.2,37.5
		l65.8-4.7l11.3-25.5l10.6,21.9l54.1-2.5l5.3-35.6L289.4,111.3z M210,156.1l-55.2,2l-9.7-31.9l71.9,2L210,156.1z M281.5,149
		l-42.5,4.5l-9.1-25.4l52.5-3.2L281.5,149z"/>
	<path fill="#1D1C1A" d="M183.8,248l34.8,4.1c0,0-5.4,11.3-15.1,11.3C196.3,263.4,188.2,255.7,183.8,248z"/>
		<path fill="#1D1C1A" d="M342.8,362.5c0.8-0.7,1.8-1.3,2.7-1.8c1-0.5,1.9-1,2.9-1.5c2-0.9,4-1.6,6.1-2.3c2.1-0.7,4.2-1.2,6.4-1.6
			c1.1-0.2,2.2-0.3,3.3-0.4c1.1-0.1,2.3-0.1,3.5,0.2c0.6,0.1,1.2,0.3,1.8,0.6c0.6,0.3,1.2,0.7,1.7,1.4l0.1,0.1l0,0.1l0.1,0.2
			l0.1,0.2c0.1,0.1,0.1,0.2,0.2,0.5c0.1,0.3,0.1,0.5,0.1,0.8c0,0.2,0,0.5-0.1,0.7c-0.2,0.9-0.7,1.5-1.2,1.9c-1,0.9-2,1.4-3.1,1.9
			c-1,0.5-2.1,0.9-3.1,1.3c-2.1,0.7-4.2,1.3-6.4,1.8c-2.1,0.5-4.3,1-6.4,1.3l-0.5-2.4c2.2-0.5,4.3-0.8,6.5-1.2
			c2.2-0.3,4.4-0.6,6.6-0.8c2.2-0.2,4.4-0.2,6.7,0c1.1,0.1,2.3,0.3,3.5,0.8c0.6,0.2,1.2,0.6,1.8,1.1l0.4,0.4
			c0.1,0.2,0.2,0.4,0.3,0.5c0.1,0.2,0.2,0.4,0.2,0.6l0.1,0.3l0,0.2c0,0.1,0-0.1,0,0.2v0v0l0,0.1l0,0.4c0,0.2-0.1,0.5-0.1,0.7
			c0,0.1-0.1,0.3-0.1,0.4l-0.1,0.3c-0.1,0.2-0.2,0.4-0.3,0.5c-0.5,0.6-1,1-1.6,1.4c-1.1,0.7-2.2,1-3.3,1.4c-2.2,0.6-4.4,1-6.6,1.2
			c-2.2,0.3-4.4,0.4-6.6,0.5c-2.2,0.1-4.4,0.1-6.6,0.1l0-2.4c1.9,0,3.8,0,5.7,0.1c1.9,0.1,3.8,0.2,5.7,0.5c1.9,0.2,3.8,0.6,5.7,1.1
			c1,0.3,1.9,0.6,2.9,1.2c0.5,0.3,1,0.6,1.4,1.1c0.4,0.5,0.8,1.2,0.9,2c0,0.2,0,0.4,0,0.6l0,0.1l0,0c0,0.1,0-0.1,0,0.2l0,0l0,0.1
			l0,0.2c0,0.1-0.2,0.7-0.5,1.1c-0.5,0.6-1,1-1.6,1.3c-1.1,0.5-2.2,0.6-3.2,0.7c-2,0.2-4,0-5.9-0.2c-1.9-0.2-3.8-0.5-5.7-0.9
			c-1.9-0.4-3.7-0.8-5.6-1.3l0.7-2.3c2.5,0.8,4.9,1.7,7.3,2.8c1.2,0.5,2.4,1.1,3.5,1.8c1.1,0.8,2.3,1.4,3.3,2.9
			c0.2,0.4,0.4,0.9,0.4,1.5c0,0.3-0.1,0.6-0.2,0.9l0,0.1l0,0l-0.1,0.1l0,0l-0.1,0.1l-0.1,0.2c-0.6,1.1-1.7,1.5-2.6,1.5
			c-1.7,0.1-3-0.4-4.3-0.8c-2.5-0.9-4.8-1.9-7.2-2.7c-1.2-0.4-2.3-0.7-3.5-0.9c-0.1,0-0.3,0-0.4-0.1l-0.2,0l-0.1,0c0.2,0,0,0,0.1,0
			h0h0l-0.1,0l-1,0c-0.5,0.1-1,0.1-1.6,0.3c-2.4,0.5-4.9,1.3-7.5,1.8c-0.6,0.1-1.3,0.3-2,0.3c-0.7,0.1-1.3,0.1-2,0.2
			c-0.7,0.1-1.4,0-2.1,0c-0.7,0-1.4-0.2-2.1-0.3c-0.7-0.2-1.4-0.4-2-0.6c-0.6-0.3-1.3-0.6-1.9-0.9c-0.6-0.4-1.2-0.8-1.7-1.2
			l-1.5-1.4l0.9,0.4l-5.6-0.3c-0.9-0.1-1.9-0.1-2.8-0.2l-2.8-0.3c-0.9-0.1-1.8-0.3-2.7-0.4c-0.9-0.1-1.8-0.4-2.7-0.6l-5.4-1.2
			l-5.4-1.4c-1.8-0.4-3.6-1-5.3-1.5c-1.8-0.5-3.5-1.1-5.3-1.6c-1.8-0.6-3.5-1.1-5.2-1.8c1.8,0.5,3.6,0.9,5.4,1.3
			c1.8,0.4,3.6,0.8,5.4,1.2c1.8,0.4,3.6,0.8,5.4,1.1l5.4,1l5.4,0.8c0.9,0.1,1.8,0.3,2.7,0.4c0.9,0.1,1.8,0.2,2.7,0.3l2.7,0.4
			c0.9,0.2,1.8,0.2,2.7,0.3l5.4,0.3l0.5,0l0.4,0.4l1.3,1.2c0.4,0.4,0.9,0.7,1.4,1c0.5,0.3,1,0.5,1.5,0.8c0.5,0.2,1.1,0.4,1.7,0.5
			c0.6,0.1,1.1,0.2,1.7,0.2c0.6,0,1.2,0.1,1.8,0c0.6,0,1.2-0.1,1.8-0.2c0.6-0.1,1.2-0.2,1.8-0.3c1.2-0.2,2.4-0.6,3.7-0.9
			c1.2-0.3,2.5-0.7,3.8-1c0.6-0.2,1.4-0.2,2.1-0.3l1,0l0.2,0l0.1,0l0.3,0c0.2,0,0.4,0,0.5,0.1c1.4,0.2,2.7,0.6,3.9,1
			c2.5,0.8,4.8,1.9,7.2,2.7c1.1,0.4,2.4,0.7,3.2,0.6c0.2,0,0.4-0.1,0.5-0.1c0.1,0,0.2-0.2,0.2-0.1l0.1-0.2l0.1-0.1l0,0
			c0,0,0-0.1,0,0.1l0,0l0,0c0,0,0,0,0-0.1c0,0,0-0.2-0.1-0.3c-0.4-0.7-1.4-1.4-2.4-2.1c-1-0.6-2.1-1.2-3.3-1.7c-2.3-1-4.7-1.9-7-2.7
			l0.7-2.3c1.8,0.5,3.6,0.9,5.4,1.2c1.8,0.4,3.7,0.7,5.5,0.9c1.8,0.2,3.7,0.3,5.4,0.2c0.9-0.1,1.7-0.2,2.3-0.5
			c0.3-0.1,0.5-0.3,0.6-0.5c0-0.1,0,0.1,0.1-0.2l0-0.2l0-0.1l0,0c-0.1,0.3,0,0.1,0,0.1l0,0l0,0c0,0,0-0.1,0-0.1
			c0-0.3-0.4-0.8-1.1-1.2c-0.7-0.4-1.5-0.7-2.3-1c-1.7-0.5-3.5-0.8-5.3-1.1c-1.8-0.2-3.7-0.4-5.5-0.5c-1.9-0.1-3.7-0.1-5.6-0.1
			l0-2.4c2.1,0,4.3,0,6.5-0.1c2.2-0.1,4.3-0.3,6.4-0.5c2.1-0.3,4.2-0.6,6.2-1.2c1-0.3,1.9-0.6,2.7-1.1c0.4-0.2,0.7-0.5,0.9-0.7
			c0.1-0.1,0.1-0.1,0.1-0.2l0.1-0.1c0,0,0,0,0,0c0,0,0,0,0.1-0.1l0-0.4v-0.1v0v0c0,0.3,0,0.1,0,0.2l0,0l0-0.1c0-0.1,0-0.1-0.1-0.2
			c0,0-0.1-0.1-0.1-0.2c-0.1,0-0.1-0.1-0.2-0.2c-0.2-0.2-0.6-0.4-1-0.6c-0.8-0.3-1.8-0.5-2.9-0.6c-2-0.2-4.2-0.1-6.3,0
			c-2.1,0.2-4.3,0.4-6.4,0.8c-2.1,0.3-4.3,0.7-6.4,1.1l-0.5-2.4c2.1-0.4,4.2-0.8,6.3-1.3c2.1-0.5,4.1-1.1,6.1-1.8
			c1-0.3,2-0.7,2.9-1.2c0.9-0.4,1.8-1,2.4-1.5c0.3-0.3,0.5-0.6,0.6-0.7c0,0,0-0.1,0-0.1c0,0,0,0,0,0c0.1,0,0-0.2-0.1-0.3l-0.1-0.2
			l0,0l0,0c0,0,0.1,0.2,0.1,0.1l0,0l0,0c-0.1-0.3-0.5-0.5-0.8-0.7c-0.4-0.2-0.8-0.4-1.3-0.5c-1.9-0.5-4-0.4-6.1-0.2
			c-2.1,0.2-4.2,0.6-6.3,1.1c-2.1,0.5-4.2,1.1-6.2,1.8c-1,0.4-2,0.7-3,1.2C344.7,361.4,343.7,361.9,342.8,362.5z"/>
	<circle fill="#1D1C1A" cx="178.3" cy="140.7" r="6.3"/>
	<circle fill="#1D1C1A" cx="236.3" cy="139.5" r="6.3"/>
	<path fill="none" stroke="#1D1C1A" stroke-width="1.8307" stroke-linejoin="round" stroke-miterlimit="10" d="M224.8,306.7"/>
		<path fill="#1D1C1A" d="M251.4,354.3c2.1,4,4,8.2,5.9,12.3c1.8,4.2,3.5,8.4,5.2,12.7c1.6,4.3,3.1,8.6,4.4,13
			c1.3,4.4,2.5,8.8,3.5,13.4c0.9,4.5,1.8,9.1,2.1,13.8c0.2,2.3,0.1,4.7,0.1,7c0,1.2-0.1,2.4-0.2,3.5c-0.1,1.2-0.2,2.4-0.4,3.5
			c-0.1,0.6-0.2,1.2-0.3,1.8l-0.1,0.9l-0.1,0.4l0,0.2l0,0.1l0,0.2c-0.3,1.1-0.5,2.2-0.8,3.3c-0.4,1.2-0.7,2.3-1.1,3.5l-1.2,3.3
			c-1.7,4.4-3.7,8.5-5.7,12.7c-2.1,4.1-4.3,8.1-6.6,12.1c-2.3,4-4.7,7.9-7.1,11.8c-4.8,7.8-9.9,15.3-15.1,22.8
			c-5.2,7.5-10.5,14.9-16,22.2c-2.7,3.7-5.5,7.3-8.3,10.9l-2.1,2.7l-0.1,0.1l-0.2,0.2L207,543l-0.3,0.3l-0.6,0.6
			c-0.3,0.3-0.6,0.5-0.9,0.8l-0.4,0.4l-0.5,0.4c-0.4,0.2-0.7,0.5-1.2,0.6c-0.4,0.2-0.9,0.3-1.3,0.4c-0.4,0.1-0.9,0.1-1.3,0.1
			c-0.4,0-0.8,0-1.2-0.1c-0.4,0-0.7-0.1-1-0.1l-1-0.2l-1.8-0.4l-2-0.5l0-2.1c-0.1-2.3,0-4.5,0.1-6.7l0.2-6.5c0.1-4.3,0.2-8.6,0-12.8
			c-0.1-2.1-0.3-4.2-0.5-6.2c-0.3-2-0.7-4-1.3-5.8c-0.6-1.8-1.5-3.4-2.5-4.2c-0.1-0.1-0.2-0.2-0.4-0.3c-0.1-0.1-0.3-0.1-0.4-0.2
			c-0.1-0.1-0.3-0.1-0.4-0.1l-0.1,0l-0.1,0l0,0l0,0c-0.2,0,0.3,0,0.2,0l-0.4,0l-0.8-0.1c-0.1,0-0.2,0.1-0.3,0.1c-0.1,0-0.1,0-0.2,0
			l-0.2,0.1c-0.2,0-0.3,0.1-0.5,0.1c-1.4,0.5-2.8,1.6-4.1,3c-1.3,1.4-2.5,3-3.6,4.8c-1.1,1.7-2.1,3.6-3,5.4
			c-0.9,1.9-1.8,3.8-2.6,5.7c-1.6,3.9-3,7.9-4.2,12c-0.6,2-1.2,4.1-1.7,6.1c-0.5,2-0.9,4.1-1.2,6.1l-0.2,1.3l-1.1,0.6
			c-2.1,1.2-4.7,2.2-7.6,2.1c-1.4-0.1-2.9-0.4-4.2-1c-0.6-0.3-1.3-0.6-1.8-1l-0.8-0.6c-0.1-0.1-0.2-0.2-0.4-0.3l-0.3-0.3
			c-0.8-0.7-1.6-1.4-2.4-2.2l-2.4-2.3c-1.6-1.5-3.1-3.1-4.6-4.6c-3-3.1-5.9-6.4-8.8-9.7c-2.8-3.3-5.6-6.7-8.2-10.1l-3.9-5.2
			c-1.3-1.8-2.5-3.6-3.7-5.4c-1.3-1.8-2.4-3.6-3.6-5.5c-1.2-1.8-2.4-3.7-3.4-5.6l-3.3-5.7l-3-5.8c-1-1.9-1.9-3.9-2.8-5.9l-1.3-3
			l-0.7-1.5l-0.6-1.5l-2.3-6.2c-0.4-1-0.7-2.1-1-3.1l-0.9-3.2l-0.9-3.2c-0.3-1.1-0.5-2.1-0.7-3.2l-0.7-3.2l-0.3-1.6l-0.2-0.8
			l-0.1-0.4l0-0.2l0-0.3c-0.6-4.3-1.5-8.4-1.6-12.9c-0.1-2.2-0.3-4.4-0.2-6.6c0-2.2-0.1-4.4,0-6.6l0.3-6.5l0.6-6.5l0.9-6.5
			c0.4-2.1,0.8-4.3,1.3-6.4c1-4.2,2.1-8.4,3.6-12.5c1.5-4.1,3.1-8.1,5.3-11.8c-1.8,3.9-3,8-4.1,12.2c-1.1,4.1-1.8,8.4-2.5,12.6
			c-0.3,2.1-0.5,4.2-0.7,6.4l-0.4,6.4l-0.1,6.4l0.2,6.4c0.1,2.1,0.3,4.2,0.4,6.3c0.1,2.1,0.4,4.2,0.7,6.3c0.3,2.1,0.5,4.1,0.8,6.3
			l0.9,6.4l1.3,6.1c0.2,1,0.4,2.1,0.7,3.1l0.9,3l0.9,3c0.3,1,0.6,2,1,3l2.2,5.9l0.5,1.5l0.6,1.5l1.3,2.9c0.9,1.9,1.7,3.9,2.7,5.7
			l2.9,5.7l3.2,5.5c1,1.9,2.2,3.6,3.3,5.4c1.1,1.8,2.2,3.6,3.5,5.3c1.2,1.7,2.4,3.5,3.6,5.2l3.8,5.1c2.6,3.4,5.3,6.7,8,9.9
			c2.8,3.2,5.6,6.4,8.6,9.4c1.5,1.5,3,3,4.5,4.5l2.3,2.2c0.8,0.7,1.6,1.4,2.4,2.2c1.3,1.2,2.6,1.8,4.1,1.8c1.4,0.1,3.1-0.5,4.7-1.4
			l-1.3,2c0.3-2.3,0.8-4.5,1.3-6.6c0.5-2.2,1.1-4.3,1.8-6.4c1.3-4.2,2.7-8.4,4.4-12.5c0.8-2.1,1.8-4.1,2.8-6.1c1-2,2.1-4,3.3-5.9
			c1.2-1.9,2.6-3.8,4.2-5.6c1.7-1.7,3.6-3.4,6.4-4.4c0.3-0.1,0.7-0.2,1.1-0.3l0.5-0.1c0.2,0,0.4,0,0.6-0.1c0.4,0,0.9,0,1.3,0
			l0.8,0.1l0.4,0c0,0,0.5,0.1,0.3,0l0,0l0.1,0l0.1,0l0.3,0.1c0.4,0.1,0.8,0.2,1.1,0.4c0.4,0.2,0.7,0.4,1,0.5
			c0.3,0.2,0.6,0.4,0.9,0.7c1.2,1,2.1,2.1,2.7,3.2c0.7,1.1,1.1,2.3,1.5,3.5c0.8,2.3,1.2,4.6,1.5,6.8c0.3,2.3,0.5,4.5,0.6,6.7
			c0.2,4.4,0.1,8.8,0,13.2l-0.2,6.5c-0.1,2.1-0.1,4.3-0.1,6.3l-2.1-2.6l1.6,0.4l0.7,0.1l0.4,0.1c0.1,0,0.2,0,0.3,0
			c0.2,0,0.4,0,0.5,0c0.1,0,0.2,0,0.4,0c0.2-0.1,0.4-0.1,0.6-0.3l0.2-0.1l0.2-0.2l0.4-0.4l0.6-0.6l0.3-0.3l0.1-0.2
			c-0.3,0.3-0.1,0.1-0.1,0.1l0,0l0.1-0.1l2.1-2.7c2.8-3.6,5.5-7.2,8.2-10.8c5.4-7.3,10.7-14.6,15.9-22c5.1-7.4,10.2-15,15-22.6
			c2.4-3.8,4.7-7.7,7-11.6c2.2-3.9,4.4-7.8,6.4-11.8c2-4,3.9-8,5.5-12.2l1.1-3.1l0.9-3c0.3-1.1,0.5-2.2,0.8-3.3l0.2-1.5
			c0.1-0.5,0.2-1.1,0.3-1.6c0.1-1.1,0.3-2.1,0.3-3.2c0.1-1.1,0.1-2.2,0.1-3.3c0-2.2-0.1-4.4-0.2-6.6c-0.2-4.4-0.5-8.8-1.1-13.3
			c-0.6-4.4-1.4-8.9-2.4-13.3c-1-4.4-2.1-8.8-3.3-13.1c-1.2-4.4-2.6-8.7-4-13C254.6,362.8,253.1,358.5,251.4,354.3z"/>
		<path fill="#1D1C1A" d="M261,457.2c0,0-0.4,0.6-1.2,1.5c-0.8,1-2.1,2.4-3.8,4.1c-1.7,1.7-4,3.6-6.6,5.6c-2.7,2.1-5.9,4.1-9.6,6.1
			c-3.7,2-7.9,3.7-12.4,5.2c-2.3,0.6-4.7,1.4-7.2,1.9c-1.3,0.2-2.4,0.6-3.8,0.7c-1.3,0.2-2.5,0.3-3.8,0.5c-2.5,0.3-5.1,0.6-7.8,0.9
			c-2.7,0.2-5.4,0.3-8.1,0.5c-1.4,0.1-2.7,0.2-4.1,0.2c-1.4,0-2.7,0-4.1,0c-2.8,0-5.5,0-8.3-0.1c-5.5-0.5-11-0.8-16.4-1.6
			c-5.4-0.6-10.6-1.7-15.7-2.7c-2.5-0.6-5-1.2-7.4-1.8c-1.2-0.3-2.4-0.7-3.6-1c-1.2-0.4-2.3-0.7-3.4-1c-1.1-0.3-2.3-0.7-3.3-1
			c-1.1-0.4-2.2-0.7-3.2-1.1c-2.1-0.7-4.1-1.4-6.1-2.2c-1.9-0.8-3.8-1.4-5.5-2.2c-1.7-0.8-3.3-1.5-4.9-2.2c-3-1.4-5.7-2.7-7.8-3.9
			c-1.1-0.5-2-1.1-2.8-1.5c-0.8-0.5-1.5-0.9-2-1.2c-1.1-0.7-1.7-1-1.7-1l0.1-0.2c0,0,0.6,0.3,1.7,0.9c1.1,0.6,2.8,1.5,5,2.5
			c2.2,1,4.8,2.2,7.9,3.5c1.5,0.6,3.2,1.3,4.9,2c1.7,0.7,3.6,1.3,5.5,2c1.9,0.7,4,1.3,6.1,2c1.1,0.3,2.1,0.7,3.2,1
			c1.1,0.3,2.2,0.6,3.3,0.9c1.1,0.3,2.3,0.6,3.4,0.9c1.2,0.3,2.3,0.6,3.5,0.9c2.4,0.5,4.9,1.1,7.4,1.7c5,0.9,10.2,2,15.6,2.5
			c5.3,0.8,10.8,1,16.2,1.5c2.7,0,5.5,0.1,8.2,0.1c1.4,0,2.7,0.1,4.1,0c1.4-0.1,2.7-0.1,4-0.2c2.7-0.1,5.3-0.2,8-0.4
			c2.6-0.3,5.2-0.6,7.8-0.9c1.3-0.1,2.5-0.3,3.8-0.4c1.2-0.1,2.5-0.4,3.7-0.6c2.4-0.4,4.7-1.1,7-1.6c4.5-1.4,8.6-2.9,12.3-4.8
			c3.7-1.8,6.9-3.7,9.6-5.6c2.7-1.9,5-3.7,6.8-5.3c1.8-1.6,3.1-2.9,4-3.8c0.9-0.9,1.3-1.5,1.3-1.5L261,457.2z"/>
	<path fill="#1D1C1A" d="M206,542.4l45.4,20c0,0-11.4,10.9-26.6,8.5c-15.3-2.4-25.8-14-31.5-21.2c-1-1.2,1.6-8.4,1.6-8.4"/>
	<path fill="#1D1C1A" d="M154,544.5l-49.6,26.7c0,0,16.9,19,35,8.1c18.1-10.9,25.2-25.2,25.2-25.2s1.1-5.5,0-10.1"/>
		<path fill="#1D1C1A" d="M258.1,370.6l20.2,4.3l-0.5,0.1c0.4-0.4,0.8-0.8,1.1-1.2c0.3-0.4,0.7-0.8,1-1.3c0.7-0.9,1.3-1.8,1.8-2.7
			c1.1-1.9,1.9-3.9,2.4-6.1c0.5-2.1,0.7-4.3,0.5-6.4c-0.1-1.1-0.2-2.1-0.4-3.2c-0.1-0.5-0.2-1-0.4-1.6c-0.1-0.5-0.3-1-0.5-1.5
			l0.6,0.6l-2.5-1.2c-0.8-0.4-1.6-0.8-2.5-1.3c-1.7-0.8-3.2-1.8-4.9-2.7c-1.6-0.9-3.2-1.9-4.8-2.8c-1.6-0.9-3.1-1.9-4.7-2.9
			c-3.1-2-6.2-4-9.2-6.1c-1.5-1-3-2.1-4.5-3.2c-1.5-1.1-3-2.2-4.5-3.3l-3.7-2.7l4.5-1.2l11.6-3l-1.7,3.5l-11.6-23.2l2.4,1.7
			c-2.3-0.3-4.6-0.5-6.9-0.9l-6.9-1l-4.1-0.6l1.7-3.8c2.4-5.5,4.9-11,7.1-16.6c2.3-5.5,4.4-11.2,6.5-16.8l3-8.5
			c1-2.8,1.9-5.7,2.8-8.6c0.5-1.4,0.9-2.9,1.4-4.3l1.3-4.3l1.3-4.3c0.4-1.4,0.8-2.9,1.2-4.3c1.6-5.8,2.9-11.6,4.1-17.5
			c0.6-2.9,1.2-5.9,1.7-8.8c0.5-3,1-5.9,1.4-8.9c0.4-3,0.8-5.9,1.2-8.9c0.3-3,0.6-5.9,0.9-8.9c0.2-3,0.5-6,0.6-8.9l0.2-4.5l0.1-2.2
			l0-2.2c0-3,0.1-6,0-9c-0.1-3-0.1-6-0.3-9l-0.3-4.5l-0.4-4.5c-0.2-3-0.6-6-0.9-8.9c-0.7-5.9-1.6-11.9-2.6-17.8l-1.7-8.8
			c-0.6-2.9-1.2-5.9-1.9-8.8c-1.3-5.9-2.8-11.7-4.3-17.5c-0.8-2.9-1.6-5.8-2.4-8.7c-0.8-2.9-1.7-5.8-2.5-8.7
			c-3.4-11.6-7.1-23.1-10.8-34.6l1.8,1.9c-10.3-3.9-21.2-6.6-32.2-8.1c-5.5-0.7-11-1.3-16.6-1.5c-5.6-0.2-11.1-0.3-16.7,0
			c-11.1,0.4-22.3,1.8-33.2,3.9c-10.9,2.1-21.8,5-32.2,8.9c-5.2,2-10.3,4.2-15,6.8c-2.4,1.3-4.7,2.8-6.7,4.4c-1,0.8-2,1.6-2.8,2.5
			c-0.4,0.4-0.8,0.9-1.1,1.3c-0.2,0.2-0.3,0.4-0.4,0.6L83,38.8l0,0c0,0,0,0.1,0,0L83,38.9l-0.2,0.5c-0.6,1.3-1.2,2.6-1.7,3.8
			l-0.7,1.9L79.6,47c-0.5,1.3-0.9,2.6-1.3,3.9c-0.4,1.3-0.8,2.6-1.2,4c-1.5,5.3-2.6,10.8-3.6,16.3c-1.9,11-3.1,22.2-3.8,33.4
			c-0.4,5.6-0.6,11.2-0.7,16.8c-0.1,5.6-0.2,11.3,0,16.8l0.2,7l-5.3-4.7c-1.4-1.3-3-2.5-4.5-3.7c-1.6-1.2-3.1-2.4-4.8-3.5
			c-1.6-1.1-3.3-2.1-4.9-3c-1.7-0.9-3.4-1.7-5.1-2.3c-1.7-0.6-3.4-0.8-4.5-0.6c-0.6,0.1-1,0.3-1.4,0.6c-0.4,0.3-0.7,0.7-1,1.3
			c-0.6,1.2-0.8,2.9-0.9,4.7c0,0.9,0,1.9,0,2.7c0.1,1,0.1,2,0.2,3c0.4,3.8,1.1,7.7,2.3,11.1c1.2,3.5,3.1,6.6,5.7,8.6
			c2.6,2,5.9,2.9,9.4,2.7c1.8-0.1,3.5-0.4,5.3-0.9c0.9-0.3,1.8-0.6,2.6-0.9c0.4-0.2,0.9-0.3,1.3-0.5c0.4-0.2,0.9-0.4,1.1-0.6
			l3.9-2.1l0.6,4.4c0.4,2.8,0.7,5.6,1.2,8.4c0.4,2.8,0.9,5.6,1.4,8.4c0.5,2.8,1,5.6,1.5,8.4c0.6,2.8,1.1,5.6,1.7,8.3
			c0.6,2.8,1.2,5.5,1.9,8.3c0.6,2.8,1.3,5.5,2,8.3c0.7,2.7,1.4,5.5,2.2,8.2c0.7,2.7,1.5,5.5,2.3,8.2c3.2,10.9,6.8,21.7,10.8,32.3
			c1,2.7,2,5.3,3.1,8c1.1,2.6,2.1,5.3,3.2,7.9l3.3,7.8c1.1,2.6,2.2,5.2,3.4,7.7l0.5,1.1l-0.3,1l-3.7,11.6l-0.3,1l-0.8,0.5
			c-0.8,0.5-1.8,1.3-2.7,2c-0.9,0.7-1.8,1.5-2.6,2.2c-1.7,1.5-3.4,3.2-5,4.8c-3.2,3.4-6.1,7-8.7,10.9c-1.3,1.9-2.6,3.9-3.7,5.9
			c-1.2,2-2.3,4.1-3.3,6.2l-1.5,3.2l-1.4,3.3l-1.2,3.3l-1.1,3.3l-1,3.4l-0.9,3.4c-0.5,2.3-1,4.6-1.4,6.9c-0.2,1.2-0.4,2.3-0.5,3.5
			c-0.1,1.2-0.4,2.4-0.4,3.4c0,2.2,0.5,4.5,1.4,6.6c0.9,2.1,2.2,4,3.9,5.7c1.6,1.6,3.6,3,5.7,4c4.2,2.1,8.9,3.2,13.7,3.8
			c-4.7-0.3-9.5-1.1-14-3.1c-2.2-1-4.3-2.2-6.2-3.9c-1.8-1.6-3.4-3.6-4.5-5.8c-1.1-2.2-1.8-4.7-1.9-7.2c0-0.3,0-0.6,0-1
			c0-0.3,0-0.6,0.1-0.9l0.2-1.8c0.1-1.2,0.2-2.4,0.4-3.6c0.3-2.4,0.7-4.8,1.1-7.1c0.3-1.2,0.5-2.4,0.8-3.5l0.9-3.5l1-3.5l1.1-3.5
			l1.3-3.4l1.4-3.4c1-2.2,2-4.4,3.1-6.6c1.1-2.2,2.3-4.3,3.6-6.3c2.6-4.1,5.5-8.1,8.7-11.8c1.6-1.9,3.3-3.6,5.1-5.4
			c0.9-0.9,1.8-1.7,2.7-2.5c1-0.8,1.9-1.6,3-2.4l-1.1,1.4l3.2-11.8l0.2,2.1c-1.3-2.6-2.6-5.2-3.8-7.8c-1.2-2.6-2.3-5.3-3.4-7.9
			c-2.2-5.3-4.2-10.7-6.2-16.1c-4-10.8-7.6-21.7-10.9-32.7c-0.8-2.8-1.6-5.5-2.4-8.3c-0.8-2.8-1.5-5.6-2.2-8.3
			c-0.7-2.8-1.4-5.6-2.1-8.4c-0.7-2.8-1.3-5.6-1.9-8.4c-0.6-2.8-1.2-5.6-1.7-8.5c-0.5-2.8-1.1-5.7-1.6-8.5c-0.5-2.8-0.9-5.7-1.4-8.5
			c-0.5-2.8-0.8-5.7-1.2-8.6l4.5,2.3c-0.6,0.3-1.1,0.5-1.6,0.8c-0.5,0.2-1,0.4-1.5,0.7c-1,0.4-2.1,0.8-3.2,1.1
			c-2.1,0.6-4.4,1-6.7,1.2c-2.3,0.1-4.7-0.1-7-0.7c-2.3-0.6-4.6-1.7-6.5-3.2c-1.9-1.5-3.5-3.3-4.7-5.3c-1.3-1.9-2.2-4-3-6.1
			c-0.8-2.1-1.3-4.2-1.7-6.3c-0.4-2.1-0.7-4.2-0.9-6.3c-0.1-1.1-0.2-2.1-0.2-3.1c-0.1-1.2-0.1-2.2-0.1-3.4c0.1-2.3,0.3-4.6,1.5-7.1
			c0.6-1.2,1.5-2.5,2.7-3.5c1.2-1,2.7-1.6,4.2-1.8c2.9-0.4,5.3,0.2,7.5,0.9c2.2,0.7,4.2,1.7,6.1,2.7c1.9,1,3.7,2.2,5.4,3.3
			c1.7,1.2,3.4,2.4,5.1,3.7c1.7,1.3,3.2,2.6,4.9,4l-5.1,2.4c-0.1-5.8-0.1-11.4,0-17.1c0.1-5.7,0.4-11.4,0.7-17.1
			c0.7-11.4,1.9-22.7,3.9-34c1-5.6,2.2-11.3,3.7-16.8c0.4-1.4,0.8-2.8,1.2-4.2c0.4-1.4,0.9-2.8,1.4-4.1c0.2-0.7,0.5-1.4,0.7-2.1
			l0.8-2.1c0.5-1.4,1.2-2.6,1.7-4l0.2-0.5l0.1-0.1l0.1-0.2l0.2-0.3c0.2-0.4,0.5-0.8,0.7-1.2c0.5-0.7,1-1.4,1.6-2
			c1.1-1.2,2.3-2.2,3.5-3.2c2.4-1.9,4.9-3.4,7.5-4.9c5.1-2.8,10.4-5.2,15.8-7.2c10.8-4.1,21.9-7,33.2-9.2c11.3-2.2,22.7-3.5,34.1-4
			c5.7-0.2,11.5-0.2,17.2,0c5.7,0.2,11.5,0.8,17.2,1.6c11.4,1.6,22.7,4.3,33.5,8.4l1.4,0.5l0.4,1.4c3.7,11.5,7.4,23.1,10.8,34.7
			c0.9,2.9,1.7,5.8,2.5,8.7c0.8,2.9,1.6,5.8,2.4,8.8c1.6,5.9,3,11.8,4.4,17.7c0.7,3,1.3,6,1.9,8.9l1.7,9c1,6,2,12,2.7,18.1
			c0.4,3,0.7,6.1,0.9,9.1l0.4,4.6l0.3,4.6c0.2,3.1,0.3,6.1,0.3,9.2c0.1,3.1,0,6.1,0,9.2l0,2.3l-0.1,2.3l-0.2,4.6
			c-0.1,3.1-0.4,6.1-0.6,9.2c-0.2,3-0.6,6.1-0.9,9.1c-0.3,3-0.8,6.1-1.2,9.1c-0.4,3-1,6-1.5,9c-0.5,3-1.2,6-1.7,9
			c-1.3,6-2.6,11.9-4.2,17.8c-0.4,1.5-0.7,3-1.2,4.4l-1.3,4.4l-1.3,4.4c-0.4,1.5-0.9,2.9-1.4,4.4c-1,2.9-1.8,5.8-2.8,8.7l-3,8.6
			c-2.2,5.7-4.3,11.4-6.6,17c-1.1,2.8-2.3,5.6-3.5,8.4l-3.6,8.4l-2.4-4.3l6.9,0.9c2.3,0.3,4.6,0.7,6.9,1l1.7,0.2l0.7,1.5l10.6,23.7
			l1.3,2.8l-2.9,0.6l-11.8,2.5l0.9-3.9c1.4,1.1,2.8,2.3,4.3,3.4c1.4,1.1,2.9,2.2,4.3,3.3c2.9,2.2,5.8,4.3,8.8,6.5
			c1.5,1,3,2.1,4.5,3.1c1.5,1,3,2,4.6,3c1.5,1,3.1,1.9,4.6,2.8c0.8,0.5,1.6,0.9,2.4,1.4l2.4,1.3l0.5,0.2l0.1,0.4
			c0.2,0.6,0.4,1.2,0.5,1.8c0.1,0.6,0.2,1.2,0.3,1.7c0.2,1.2,0.3,2.3,0.3,3.5c0,2.4-0.3,4.7-0.9,7c-0.6,2.3-1.6,4.4-2.9,6.4
			c-0.6,1-1.3,1.9-2.1,2.8c-0.4,0.5-0.8,0.9-1.1,1.3c-0.4,0.4-0.8,0.8-1.2,1.2l-0.2,0.2L278,376L258.1,370.6z"/>
		<path fill="#1D1C1A" d="M230.4,300.2l-3.2,8.4l-3.3,8.3l-3.3,8.3c-1.1,2.8-2.1,5.6-3.3,8.3c-0.3,0.6-1,0.9-1.7,0.6
			c-0.2-0.1-0.4-0.2-0.5-0.4c-0.5-0.6-1-1.3-1.5-1.9c-0.5-0.6-1.1-1.2-1.6-1.9c-1.1-1.2-2.2-2.4-3.4-3.5c-2.4-2.3-4.9-4.4-7.5-6.4
			c-2.6-2-5.4-3.7-8.3-5.2c-0.7-0.4-1.5-0.7-2.2-1.1c-0.7-0.3-1.5-0.7-2.2-1c-0.8-0.3-1.5-0.6-2.3-0.9c-0.8-0.3-1.5-0.5-2.3-0.8
			l0.4,0l-2.6,0l-2.6-0.1c-1.7-0.1-3.4-0.2-5.1-0.3c-1.7-0.1-3.4-0.3-5.1-0.5c-1.7-0.2-3.4-0.4-5.1-0.7c-6.7-1.1-13.4-2.5-19.9-4
			c-6.6-1.6-13.1-3.4-19.6-5.3c-6.5-1.9-12.9-4-19.3-6.2l1.6-0.8l-4,11.7l-0.4-1.4c5.2,3.8,10.5,7.5,15.9,11
			c5.4,3.6,10.9,7,16.4,10.3c5.6,3.3,11.2,6.5,16.9,9.4c1.4,0.7,2.9,1.4,4.3,2.1c1.5,0.7,2.9,1.4,4.4,2c1.5,0.6,3,1.3,4.4,1.9
			c1.5,0.6,3,1.3,4.4,1.9l-1.4,0.6c1-2.4,2-4.8,3.1-7.2c0.6-1.2,1.1-2.4,1.7-3.5c0.6-1.2,1.2-2.3,1.8-3.5c1.2-2.3,2.5-4.5,3.9-6.7
			c1.4-2.2,2.9-4.3,4.5-6.4c-1.5,2.1-2.7,4.4-4,6.7c-1.2,2.3-2.4,4.6-3.4,6.9c-0.5,1.2-1.1,2.4-1.5,3.5c-0.5,1.2-1,2.4-1.5,3.6
			c-0.9,2.4-1.8,4.8-2.6,7.3c-0.2,0.6-0.8,0.9-1.3,0.7l0,0c-1.6-0.5-3.1-1-4.6-1.6c-1.5-0.6-3-1.3-4.5-1.9c-1.5-0.7-3-1.3-4.4-2.1
			c-1.5-0.7-2.9-1.4-4.4-2.2c-5.8-2.9-11.5-6.1-17.1-9.5c-5.6-3.3-11.1-6.8-16.5-10.4c-5.4-3.6-10.8-7.3-16-11.1
			c-0.4-0.3-0.6-0.9-0.4-1.4l0,0l4-11.7c0.2-0.6,0.9-1,1.5-0.8l0,0l0,0c6.3,2.2,12.8,4.3,19.2,6.2c6.5,1.9,13,3.7,19.5,5.3
			c6.5,1.6,13.1,3,19.7,4c1.7,0.3,3.3,0.5,5,0.7c1.7,0.2,3.3,0.4,5,0.5c1.7,0.2,3.3,0.2,5,0.3l2.5,0.1l2.5,0l0.1,0
			c0.1,0,0.2,0,0.3,0c0.8,0.3,1.6,0.5,2.4,0.8c0.8,0.3,1.6,0.6,2.4,0.9c0.8,0.3,1.6,0.7,2.3,1c0.8,0.4,1.5,0.7,2.3,1.1
			c3,1.6,5.9,3.4,8.6,5.4c2.7,2,5.3,4.2,7.7,6.6c1.2,1.2,2.4,2.4,3.5,3.7c0.6,0.6,1.1,1.3,1.7,1.9c0.6,0.7,1.1,1.3,1.6,2l-2.2,0.2
			c1.2-2.7,2.5-5.4,3.8-8.1l3.8-8.1l3.8-8.1L230.4,300.2z"/>
		<path fill="#1D1C1A" d="M45.2,134.3c0,0,1.4,0.5,3.3,1.6c0.5,0.3,1,0.6,1.5,0.9c0.5,0.3,1.1,0.7,1.6,1.1c0.6,0.4,1.1,0.9,1.7,1.3
			c0.6,0.5,1.1,1,1.6,1.5c0.5,0.6,1,1.1,1.5,1.7c0.4,0.6,1,1.2,1.3,1.8c0.3,0.7,0.7,1.3,0.8,1.9c0.2,0.7,0.4,1.2,0.4,1.8
			c0.1,0.6,0.1,1.1,0.1,1.6c0,0.5-0.1,0.9-0.2,1.2c-0.1,0.7-0.2,1-0.2,1h-0.2c0,0-0.2-0.4-0.4-1c-0.1-0.3-0.2-0.7-0.4-1.1
			c-0.2-0.4-0.4-0.8-0.6-1.3c-0.1-0.2-0.2-0.5-0.3-0.7c-0.1-0.2-0.2-0.5-0.4-0.8c-0.2-0.5-0.6-1-0.8-1.6c-0.2-0.6-0.6-1.1-0.9-1.7
			c-0.3-0.6-0.7-1.1-1.1-1.7c-0.4-0.5-0.9-1.1-1.3-1.6c-0.5-0.5-0.9-1-1.4-1.5c-0.5-0.5-1-0.9-1.4-1.3c-0.4-0.4-0.9-0.8-1.3-1.1
			c-1.7-1.3-2.9-2.1-2.9-2.1L45.2,134.3z"/>
		<path fill="#1D1C1A" d="M218.6,282.1c0,0,0.4,0.1,1,0.5c0.6,0.3,1.5,0.8,2.5,1.6c0.5,0.4,1,0.8,1.5,1.4c0.5,0.5,1,1.2,1.4,1.9
			c0.4,0.7,0.8,1.6,0.9,2.6c0.1,1-0.1,2-0.5,3c-0.4,0.9-1.1,1.6-1.8,2.2c-0.7,0.6-1.5,1-2.2,1.3c-0.4,0.2-0.7,0.3-1.1,0.5
			c-0.4,0.1-0.7,0.2-1.1,0.3c-0.7,0.2-1.4,0.3-2,0.5c-0.6,0.1-1.2,0.2-1.7,0.2c-0.5,0.1-0.9,0.1-1.3,0.1c-0.7,0-1.1,0-1.1,0
			s0.4-0.2,1-0.5c0.6-0.3,1.6-0.7,2.7-1.2c0.5-0.3,1.1-0.5,1.7-0.8c0.3-0.2,0.6-0.3,0.9-0.5c0.3-0.2,0.6-0.3,0.9-0.5
			c0.3-0.2,0.6-0.4,0.9-0.6c0.3-0.2,0.5-0.4,0.8-0.6c0.5-0.5,0.9-1,1.2-1.5c0.3-0.5,0.4-1.1,0.3-1.7c0-0.6-0.2-1.2-0.4-1.8
			c-0.3-0.6-0.6-1.2-0.9-1.7c-0.4-0.5-0.7-1.1-1.1-1.5c-0.7-0.9-1.4-1.7-1.8-2.2C218.9,282.4,218.6,282.1,218.6,282.1z"/>
		<path fill="#1D1C1A" d="M194.2,296.8c0,0,1.7,0.4,4.3,1c1.3,0.3,2.8,0.6,4.3,0.8c0.8,0.1,1.6,0.2,2.4,0.3c0.8,0.1,1.6,0.1,2.4,0.1
			c0.8,0,1.6-0.1,2.3-0.3c0.7-0.2,1.4-0.4,2-0.8c0.3-0.2,0.6-0.4,0.8-0.6l0.4-0.3l0.3-0.4c0.4-0.5,0.7-1.1,1-1.6
			c0.1-0.3,0.2-0.6,0.3-0.8c0.1-0.3,0.2-0.5,0.2-0.8c0.1-0.5,0.3-1,0.3-1.3c0.1-0.8,0.2-1.2,0.2-1.2s0.1,0.4,0.3,1.2
			c0.1,0.4,0.1,0.9,0.1,1.4c0,0.6,0,1.2-0.1,1.9c-0.1,0.7-0.3,1.5-0.8,2.2c-0.4,0.8-1,1.5-1.8,2.1c-0.8,0.5-1.7,1-2.6,1.3
			c-0.9,0.3-1.9,0.4-2.9,0.4c-1.9,0.1-3.7-0.3-5.4-0.7c-0.8-0.2-1.6-0.5-2.3-0.8c-0.7-0.3-1.4-0.6-2-0.9c-1.2-0.6-2.2-1.2-2.8-1.6
			S194.2,296.8,194.2,296.8z"/>
		<path fill="#1D1C1A" d="M235.7,104.6c0,0,0.2-0.3,0.6-0.8c0.2-0.2,0.5-0.5,0.8-0.8c0.3-0.3,0.7-0.6,1.1-0.9
			c0.2-0.1,0.5-0.3,0.7-0.5c0.3-0.1,0.5-0.3,0.8-0.4c0.5-0.3,1.2-0.5,1.8-0.7c0.7-0.1,1.4-0.4,2.1-0.4c0.4,0,0.7-0.1,1.1-0.1
			l1.1,0.1c0.7,0,1.5,0.3,2.2,0.4c0.7,0.2,1.3,0.5,2,0.8c0.6,0.3,1.1,0.7,1.6,1.1c0.5,0.4,0.9,0.8,1.3,1.2c0.4,0.4,0.7,0.7,0.9,1.1
			c0.3,0.3,0.5,0.7,0.6,0.9c0.3,0.5,0.5,0.8,0.5,0.8s-0.3-0.2-0.8-0.5c-0.3-0.2-0.6-0.3-0.9-0.6c-0.3-0.2-0.7-0.4-1.2-0.7
			c-0.4-0.2-0.9-0.5-1.4-0.7c-0.5-0.2-1-0.4-1.6-0.7c-0.6-0.1-1.1-0.4-1.7-0.5c-0.6-0.1-1.2-0.3-1.8-0.3l-0.9-0.1
			c-0.3,0-0.6,0-0.9,0c-0.6,0-1.2,0.1-1.8,0.1c-0.6,0.1-1.1,0.2-1.7,0.3c-0.5,0.1-1,0.3-1.5,0.4c-0.9,0.3-1.7,0.6-2.3,0.8
			C236,104.5,235.7,104.6,235.7,104.6z"/>
		<path fill="#1D1C1A" d="M201.7,103.9c0,0-0.4-0.3-1.2-0.6c-0.4-0.2-0.8-0.4-1.4-0.6c-0.3-0.1-0.6-0.2-0.9-0.3
			c-0.3-0.1-0.6-0.2-1-0.3c-0.7-0.2-1.4-0.3-2.2-0.5c-0.8-0.2-1.6-0.2-2.5-0.3c-0.9,0-1.7-0.1-2.7,0c-0.9,0.1-1.8,0.1-2.7,0.3
			l-1.4,0.2c-0.5,0.1-0.9,0.2-1.4,0.3c-0.4,0.1-0.9,0.2-1.3,0.3c-0.4,0.1-0.9,0.2-1.3,0.3c-0.8,0.3-1.7,0.4-2.5,0.7
			c-0.8,0.3-1.5,0.5-2.2,0.7c-0.7,0.2-1.3,0.4-1.9,0.6c-0.6,0.2-1,0.4-1.5,0.5c-0.8,0.3-1.3,0.4-1.3,0.4s0.4-0.3,1.1-0.8
			c0.3-0.3,0.8-0.6,1.3-0.9c0.5-0.3,1-0.7,1.7-1.1c0.6-0.4,1.4-0.7,2.1-1.1c0.8-0.4,1.6-0.7,2.5-1c0.4-0.2,0.9-0.3,1.3-0.5
			c0.5-0.1,0.9-0.3,1.4-0.4c0.5-0.1,1-0.3,1.4-0.4l1.5-0.2c1-0.2,2-0.2,3-0.2c0.5,0,1,0,1.5,0.1c0.5,0,1,0.1,1.4,0.1
			c0.9,0.2,1.8,0.3,2.7,0.6c0.4,0.1,0.8,0.2,1.2,0.4c0.4,0.2,0.7,0.3,1.1,0.5c0.7,0.4,1.3,0.7,1.8,1.1c0.5,0.3,0.9,0.7,1.2,1
			C201.4,103.5,201.7,103.9,201.7,103.9z"/>
	<path fill="#1D1C1A" d="M167.2,386.7c0,0-4.2-10-3.5-12.9c0.4-1.6,6.2-0.7,10.9-1c4.7-0.2,9.7-1.4,10.2-0.5c0.5,0.9,1.1,12,0,12.9
		c-1.1,0.8-3.7,0.3-3.7,0.3l-0.7-7.7l-3,0.3l1.1,8c0,0-3.3,1.2-4.5,0.4c-1.2-0.8-1.7-7.9-1.7-7.9l-3.2,0.1l2.3,8.5
		C171.3,387.1,169.2,387.5,167.2,386.7z"/>
		<path fill="#1D1C1A" d="M165.1,387.1c0,0-0.6,0.2-1.4,0.5c-0.8,0.3-1.9,0.7-2.9,1.1c-0.5,0.2-0.9,0.6-1.4,0.8
			c-0.4,0.2-0.9,0.3-1.3,0.3c-0.8,0.1-1.6,0-1.6,0l-0.2-0.2c0,0,0.1-0.7,0.8-1.6c0.3-0.3,0.8-0.7,1.3-0.9c0.3-0.1,0.6-0.1,0.9-0.2
			c0.3,0,0.6-0.1,0.9-0.1c0.6-0.1,1.2-0.2,1.8-0.1c0.6,0,1.1,0,1.5,0c0.9,0,1.5,0.1,1.5,0.1L165.1,387.1z"/>
		<path fill="#1D1C1A" d="M163.6,383.5c0,0-0.6,0.2-1.4,0.5c-0.8,0.3-1.9,0.7-2.9,1.1c-0.5,0.2-0.9,0.6-1.4,0.8
			c-0.4,0.2-0.9,0.3-1.3,0.3c-0.8,0.1-1.6,0-1.6,0l-0.2-0.2c0,0,0.1-0.7,0.8-1.6c0.3-0.3,0.8-0.7,1.3-0.9c0.3-0.1,0.6-0.1,0.9-0.2
			c0.3,0,0.6-0.1,0.9-0.1c0.6-0.1,1.2-0.2,1.8-0.1c0.6,0,1.1,0,1.5,0c0.9,0,1.5,0.1,1.5,0.1L163.6,383.5z"/>
		<path fill="#1D1C1A" d="M163.2,378.7c0,0-0.6,0.2-1.4,0.5c-0.8,0.3-1.9,0.7-2.9,1.1c-0.5,0.2-0.9,0.6-1.4,0.8
			c-0.4,0.2-0.9,0.3-1.3,0.3c-0.8,0.1-1.6,0-1.6,0l-0.2-0.2c0,0,0.1-0.7,0.8-1.6c0.3-0.3,0.8-0.7,1.3-0.9c0.3-0.1,0.6-0.1,0.9-0.2
			c0.3,0,0.6-0.1,0.9-0.1c0.6-0.1,1.2-0.2,1.8-0.1c0.6,0,1.1,0,1.5,0c0.9,0,1.5,0.1,1.5,0.1L163.2,378.7z"/>
		<path fill="#1D1C1A" d="M162.7,373.8c0,0-0.6,0.2-1.4,0.5c-0.8,0.3-1.9,0.7-2.9,1.1c-0.5,0.2-0.9,0.6-1.4,0.8
			c-0.4,0.2-0.9,0.3-1.3,0.3c-0.8,0.1-1.6,0-1.6,0l-0.2-0.2c0,0,0.1-0.7,0.8-1.6c0.3-0.3,0.8-0.7,1.3-0.9c0.3-0.1,0.6-0.1,0.9-0.2
			c0.3,0,0.6-0.1,0.9-0.1c0.6-0.1,1.2-0.2,1.8-0.1c0.6,0,1.1,0,1.5,0c0.9,0,1.5,0.1,1.5,0.1L162.7,373.8z"/>
		<path fill="#1D1C1A" d="M185.8,385c0,0,0.5-0.2,1.2-0.4c0.4-0.1,0.8-0.2,1.3-0.3c0.5-0.1,1-0.1,1.5-0.1c0.3,0,0.5,0,0.8,0
			c0.3,0,0.5,0,0.8,0c0.5,0.2,0.9,0.4,1.2,0.7c0.6,0.7,0.8,1.4,0.8,1.4l-0.1,0.2c0,0-0.7,0.2-1.4,0.2c-0.4,0-0.8,0.1-1.1-0.1
			c-0.4-0.1-0.8-0.4-1.2-0.5c-0.4-0.1-0.9-0.3-1.3-0.4c-0.4-0.1-0.8-0.2-1.2-0.3c-0.7-0.2-1.2-0.2-1.2-0.2L185.8,385z"/>
		<path fill="#1D1C1A" d="M186.5,381.3c0,0,0.5-0.2,1.2-0.4c0.4-0.1,0.8-0.2,1.3-0.3c0.5-0.1,1-0.1,1.5-0.1c0.3,0,0.5,0,0.8,0
			c0.3,0,0.5,0,0.8,0c0.5,0.2,0.9,0.4,1.2,0.7c0.6,0.7,0.8,1.4,0.8,1.4l-0.1,0.2c0,0-0.7,0.2-1.4,0.2c-0.4,0-0.7,0.1-1.1-0.1
			c-0.4-0.1-0.8-0.4-1.2-0.5c-0.4-0.1-0.9-0.3-1.3-0.4c-0.4-0.1-0.8-0.2-1.2-0.3c-0.7-0.2-1.2-0.2-1.2-0.2L186.5,381.3z"/>
		<path fill="#1D1C1A" d="M186,376.4c0,0,0.5-0.2,1.2-0.4c0.4-0.1,0.8-0.2,1.3-0.3c0.5-0.1,1-0.1,1.5-0.1c0.3,0,0.5,0,0.8,0
			c0.3,0,0.5,0,0.8,0c0.5,0.2,0.9,0.4,1.2,0.7c0.6,0.7,0.8,1.4,0.8,1.4l-0.1,0.2c0,0-0.7,0.2-1.4,0.2c-0.4,0-0.8,0.1-1.1-0.1
			c-0.4-0.1-0.8-0.4-1.2-0.5c-0.4-0.1-0.9-0.3-1.3-0.4c-0.4-0.1-0.8-0.2-1.2-0.3c-0.7-0.2-1.2-0.2-1.2-0.2L186,376.4z"/>
		<path fill="#1D1C1A" d="M185.6,371.5c0,0,0.5-0.2,1.2-0.4c0.4-0.1,0.8-0.2,1.3-0.3c0.5-0.1,1-0.1,1.5-0.1c0.3,0,0.5,0,0.8,0
			c0.3,0,0.5,0,0.8,0c0.5,0.2,0.9,0.4,1.2,0.7c0.6,0.7,0.8,1.4,0.8,1.4L193,373c0,0-0.7,0.2-1.4,0.2c-0.4,0-0.7,0.1-1.1-0.1
			c-0.4-0.1-0.8-0.4-1.2-0.5c-0.4-0.1-0.9-0.3-1.3-0.4c-0.4-0.1-0.8-0.2-1.2-0.3c-0.7-0.2-1.2-0.2-1.2-0.2L185.6,371.5z"/>
		<path fill="#1D1C1A" d="M79.8,34.9c0-0.7-0.1-1.3-0.2-2c0-0.4-0.1-0.7-0.2-1.1c0-0.4-0.1-0.7-0.2-1.1c-0.1-0.4-0.2-0.7-0.3-1.1
			c-0.1-0.4-0.2-0.7-0.3-1c-0.2-0.7-0.5-1.4-0.8-2c-0.3-0.6-0.7-1.2-1.1-1.7L76,24.2l-0.8-0.6c-0.2-0.2-0.6-0.3-0.8-0.4
			c-0.3-0.2-0.6-0.2-0.9-0.3c-0.2,0-0.3-0.1-0.5-0.1l-0.1,0l-0.1,0c-0.1,0,0.1,0,0.1,0l0,0l0,0l0,0l-0.3,0l-1.1-0.1
			c-0.4,0-0.7,0-1,0c-0.3,0-0.7,0-1,0c-0.4,0-0.7,0-1.1,0.1l-1.1,0.1c-0.7,0.1-1.4,0.2-2.2,0.4c-0.7,0.2-1.4,0.3-2.2,0.5
			c-1.4,0.4-2.9,0.8-4.3,1.3c-0.7,0.3-1.4,0.5-2.1,0.8c-0.7,0.3-1.4,0.6-2,1l-0.2-0.8c1.2,0,2.4,0,3.6,0c1.2,0,2.4-0.1,3.6-0.1
			c1.2-0.1,2.4-0.1,3.6-0.1c1.2,0,2.4,0.1,3.6,0.3c0.6,0.1,1.2,0.2,1.9,0.5l0.5,0.2c0.2,0.1,0.3,0.2,0.5,0.3
			c0.2,0.1,0.3,0.2,0.5,0.3l0.3,0.3c0.9,0.8,1.8,1.5,2.7,2.3c0.9,0.8,1.8,1.6,2.6,2.4C78.3,33.3,79.1,34,79.8,34.9z M79.8,35.3
			c-1-0.6-2-1.2-3-1.9c-1-0.7-2-1.3-3-2c-1-0.7-1.9-1.4-2.9-2.1l-0.4-0.3c-0.1,0-0.2-0.1-0.3-0.1c-0.1,0-0.2-0.1-0.3-0.1l-0.4-0.1
			c-0.5-0.2-1-0.3-1.6-0.4c-1.1-0.2-2.2-0.4-3.4-0.6c-1.1-0.2-2.3-0.4-3.5-0.6c-1.2-0.1-2.3-0.3-3.5-0.3c-1.2,0-2.4,0-3.5,0L52.7,27
			l1.3-0.8c1.3-0.8,2.6-1.6,4-2.4c0.7-0.4,1.4-0.7,2.1-1.1c0.7-0.3,1.4-0.7,2.2-0.9c0.7-0.3,1.5-0.5,2.2-0.7
			c0.8-0.2,1.5-0.4,2.3-0.6l1.2-0.2c0.4-0.1,0.8-0.1,1.2-0.1c0.8-0.1,1.7-0.1,2.5,0l1.1,0.1l0.3,0l0.1,0l0.1,0l0.2,0l0.6,0.2
			c0.4,0.1,0.9,0.2,1.3,0.5c0.4,0.2,0.8,0.4,1.2,0.7c0.4,0.3,0.7,0.6,1,0.9l0.9,1c0.5,0.7,0.9,1.5,1.2,2.3c0.2,0.4,0.3,0.8,0.4,1.2
			c0.1,0.4,0.2,0.8,0.3,1.2c0.1,0.4,0.1,0.8,0.2,1.2c0,0.4,0.1,0.8,0.1,1.2c0,0.8,0,1.6-0.1,2.4c-0.1,0.8-0.2,1.6-0.4,2.3l0,0.2
			L79.8,35.3z"/>
		<path fill="#1D1C1A" d="M58.1,40.9c1.8-0.4,3.6-0.8,5.5-1.2c0.9-0.2,1.8-0.3,2.7-0.5c0.9-0.2,1.8-0.3,2.7-0.5
			c1.8-0.3,3.7-0.6,5.5-0.9c1.8-0.3,3.7-0.5,5.5-0.7l-1,1.6c-0.2-0.4-0.5-0.9-0.8-1.4c-0.3-0.5-0.6-0.9-0.9-1.3
			c-0.2-0.2-0.3-0.4-0.5-0.6c-0.2-0.2-0.4-0.4-0.6-0.6c-0.4-0.4-0.8-0.7-1.2-1l-0.7-0.4c-0.2-0.1-0.5-0.2-0.7-0.3
			c-0.2-0.1-0.5-0.2-0.7-0.2l-0.4-0.1c-0.1,0-0.2,0-0.4,0c-0.2,0-0.5-0.1-0.7-0.1l-0.8,0c-0.3,0-0.5,0.1-0.8,0.1
			c-0.2,0.1-0.6,0.1-0.7,0.2l-1.7,0.6c-0.3,0.1-0.6,0.2-0.8,0.3l-0.7,0.4c-0.5,0.3-1,0.5-1.5,0.8l-1.4,1c-0.5,0.3-0.9,0.7-1.4,1.1
			l-0.7,0.5l-0.6,0.6c-0.4,0.4-0.9,0.8-1.3,1.2C58.9,40,58.5,40.4,58.1,40.9z M58.1,40.9c0.3-0.5,0.5-1.1,0.9-1.6
			c0.3-0.5,0.7-1,1-1.5l0.6-0.7l0.6-0.7c0.4-0.4,0.8-0.9,1.3-1.3l1.4-1.2c0.5-0.4,1-0.7,1.6-1.1l0.8-0.5c0.3-0.1,0.5-0.3,0.8-0.4
			l1.6-0.8l0.1,0l0,0l0.1,0l0,0l0.2-0.1l0.5-0.1c0.3-0.1,0.6-0.2,1-0.2l1-0.1c0.3,0,0.7,0,1,0c0.2,0,0.3,0,0.5,0l0.5,0.1
			c0.3,0.1,0.7,0.1,1,0.3c0.3,0.1,0.6,0.3,0.9,0.4l0.9,0.5c0.5,0.4,1.1,0.8,1.6,1.2c0.2,0.2,0.5,0.5,0.7,0.7
			c0.2,0.2,0.4,0.5,0.6,0.7c0.4,0.5,0.8,1,1.1,1.6c0.3,0.6,0.6,1.1,0.9,1.7l0.6,1.5l-1.6,0.2c-1.8,0.2-3.7,0.4-5.5,0.5
			c-1.8,0.2-3.7,0.3-5.6,0.4c-0.9,0.1-1.9,0.1-2.8,0.2c-0.9,0-1.9,0.1-2.8,0.1C61.9,40.8,60,40.9,58.1,40.9z"/>
		<path fill="#1D1C1A" d="M67.3,429c0,0,0.1,0,0.3-0.1c0.1,0,0.4-0.1,0.7-0.2c0.7-0.2,1.6-0.5,2.8-1c1.2-0.5,2.5-1.1,3.9-1.8
			c0.7-0.4,1.4-0.8,2.1-1.2c0.7-0.4,1.4-0.9,2.2-1.4c0.7-0.5,1.4-1,2.1-1.5c0.7-0.5,1.3-1,2-1.5c0.6-0.5,1.2-1.1,1.8-1.5
			c0.6-0.5,1.1-1,1.5-1.5c0.5-0.5,0.9-0.9,1.3-1.3c0.4-0.4,0.7-0.7,0.9-1c0.5-0.6,0.8-0.9,0.8-0.9s-0.2,0.4-0.6,1
			c-0.2,0.3-0.5,0.7-0.7,1.2c-0.3,0.5-0.6,1-1,1.5c-0.4,0.5-0.8,1.2-1.3,1.8c-0.5,0.6-1,1.2-1.5,1.9c-0.5,0.6-1.1,1.3-1.7,2
			c-0.6,0.6-1.2,1.3-1.9,1.9c-0.7,0.6-1.3,1.3-2,1.9c-0.7,0.6-1.3,1.2-2,1.7c-1.3,1.1-2.7,2-3.8,2.8c-1.2,0.8-2.2,1.3-3,1.7
			c-0.4,0.2-0.7,0.3-0.9,0.5c-0.2,0.1-0.3,0.1-0.3,0.1L67.3,429z"/>
		<path fill="#1D1C1A" d="M67.5,378.7c0,0,0,0.4-0.1,1c0,0.6-0.2,1.6-0.3,2.7c-0.1,0.6-0.1,1.1-0.2,1.8c-0.1,0.6-0.1,1.3-0.3,2
			c-0.2,1.4-0.5,2.8-0.7,4.3c-0.1,0.7-0.3,1.5-0.4,2.2c-0.1,0.7-0.3,1.4-0.5,2.1c-0.3,1.4-0.6,2.6-0.9,3.7c-0.5,2.2-0.9,3.7-0.9,3.7
			l-5-2.1c0,0,0.6-1.3,1.6-3.2c0.5-1,1.1-2.1,1.7-3.3c0.3-0.6,0.7-1.2,0.9-1.9c0.3-0.7,0.6-1.3,0.8-2c0.6-1.3,1.1-2.7,1.7-4
			c0.3-0.6,0.5-1.3,0.7-1.8c0.2-0.6,0.4-1.1,0.6-1.7c0.4-1,0.7-1.9,0.9-2.5C67.4,379,67.5,378.7,67.5,378.7z"/>
		<path fill="#1D1C1A" d="M65.3,426.2c1.7-3.8,2.2-8,1.4-12c-0.4-2-1-3.9-2-5.6c-0.9-1.8-2.1-3.4-3.4-4.8c-0.7-0.7-1.5-1.6-2.1-2.4
			c-0.7-0.9-1.3-1.8-1.9-2.7c-1.1-1.9-2-4-2.6-6.2c-0.6-2.2-0.9-4.4-1.1-6.5c-0.2-2.2,0-4.3,0.1-6.3c0.1-2,0.1-4-0.2-5.7
			c-0.3-1.7-0.9-3.2-1.9-4.2c-0.5-0.5-1.2-1-1.9-1.4l-0.3-0.1l-0.1-0.1l-0.2-0.1c-0.2-0.1-0.5-0.2-0.7-0.3c-0.4-0.2-0.8-0.3-1.2-0.5
			c-0.8-0.3-1.6-0.4-2-0.4c-0.2,0-0.3,0.1-0.4,0.1c-0.1,0-0.1,0.1-0.3,0.3c-0.2,0.4-0.4,1.1-0.5,2c-0.1,0.9-0.1,1.8,0,2.7
			c0.1,1.9,0.4,3.9,0.7,5.9c0.6,4,1.4,8.1,1.8,12.4c0.2,2.1,0.4,4.3,0.3,6.5c-0.1,1.2,0,2.2-0.6,3.8c-0.4,1.3-1.2,2.5-2,3.4
			c-1.6,1.9-3.5,3.3-5.4,4.5c-1.9,1.2-3.8,2.2-5.7,3.1c-3.8,1.8-7.7,3.4-11.4,5.1c-1.9,0.8-3.7,1.7-5.4,2.7c-1.7,0.9-3.4,2-4.6,3.2
			c-1.3,1.2-2.1,2.5-2.2,3.6c0,0.3,0,0.6,0.1,0.9l0.1,0.2l0,0.1l0,0c0-0.2,0,0,0,0l0.1,0.2c0.1,0.2,0.2,0.5,0.2,0.6
			c0.2,0.6,0.6,1.3,1.1,1.7c0.8,0.9,2.3,1.2,4,1.2c1.7-0.1,3.6-0.5,5.4-1.1c3.7-1.2,7.3-3.1,10.7-5.1c3.5-2,6.9-4.3,10.1-6.7L44,422
			c-1.5,0.9-3.1,1.8-4.6,2.8c-1.5,0.9-3,1.9-4.5,2.9c-3,2-5.9,4-8.8,6.1c-2.8,2.1-5.6,4.4-8.1,6.7c-1.2,1.2-2.4,2.4-3.5,3.7
			c-1,1.3-1.9,2.7-2.2,3.8c-0.2,1.2-0.1,1.5,0.7,2.2c0,0,0,0,0,0c0,0,0.1,0,0.1,0.1c0.1,0,0.2,0.1,0.3,0.1c0.2,0.1,0.5,0.1,0.8,0.1
			c0.6,0,1.3-0.1,2-0.3c1.5-0.4,3-1,4.5-1.8c1.5-0.8,3-1.7,4.5-2.6c2.9-1.9,5.8-4,8.6-6.2c1.4-1.1,2.8-2.3,4.1-3.4
			c1.3-1.2,2.7-2.4,4-3.5l3.3,3.6c-1.1,0.9-2.2,1.9-3.3,2.9c-1.1,1-2.1,2-3.2,3c-2.1,2-4.2,4.1-6.1,6.2c-2,2.1-3.8,4.3-5.4,6.6
			c-0.8,1.1-1.5,2.3-2,3.4c-0.2,0.5-0.4,1.1-0.5,1.5c-0.1,0.4,0,0.7,0,0.7c0,0,0,0,0.1,0.1c-0.2-0.1,0.3,0.3,0.2,0.1c0,0,0,0,0,0
			c0,0,0,0,0.1,0c0.2,0.1,0.5,0.1,1,0.1c1-0.1,2.2-0.6,3.4-1.1c2.4-1.2,4.7-2.8,7-4.6c2.3-1.8,4.4-3.7,6.6-5.6c1.1-1,2.1-2,3.2-3
			c1-1,2.1-2.1,3-3.1l3.5,3.4c-1.1,1.2-2.3,2.4-3.3,3.7c-1.1,1.2-2.2,2.5-3.2,3.8c-1,1.3-2,2.6-2.9,3.9c-0.9,1.3-1.8,2.7-2.3,4
			c-0.3,0.6-0.5,1.3-0.5,1.6c0,0.2,0,0.2,0,0.1c0-0.1-0.1-0.2-0.1-0.2c0,0-0.1-0.1-0.1-0.1c0.1,0.1-0.2-0.1-0.1-0.1l0,0l0,0l0.1,0
			c0,0,0.1,0.1,0.1,0c-0.2-0.1-0.2-0.1-0.2-0.1c0,0,0.1,0,0.2,0c0.2,0,0.4,0,0.7-0.1c0.6-0.1,1.3-0.3,2-0.6c1.4-0.5,2.8-1.3,4.2-2.1
			c1.4-0.8,2.8-1.7,4.2-2.6c2.7-1.9,5.4-3.9,7.9-6.1c1.3-1.1,2.5-2.2,3.6-3.4c0.5-0.6,1.1-1.2,1.4-1.8c0.1-0.2,0.3-0.7,0.6-1.1
			l0.6-1.1c0.8-1.5,1.6-2.9,2.2-4.4c0.6-1.5,1-3.1,1.1-4.7c0.1-1.6-0.2-3.3-0.8-4.8C67.3,429,66.4,427.5,65.3,426.2z M65.3,426.2
			c1.2,1.2,2.2,2.6,3,4.2c0.8,1.5,1.3,3.2,1.4,5c0.1,1.8-0.2,3.5-0.7,5.2c-0.5,1.7-1.2,3.3-1.9,4.8l-0.5,1.1
			c-0.2,0.4-0.3,0.7-0.5,1.2c-0.5,0.9-1,1.6-1.5,2.3c-1.1,1.4-2.2,2.7-3.4,3.9c-2.4,2.5-4.9,4.8-7.6,7c-1.3,1.1-2.7,2.2-4.1,3.2
			c-1.4,1-2.9,2-4.6,2.8c-0.8,0.4-1.7,0.8-2.8,1.1c-0.5,0.1-1.1,0.2-1.8,0.3c-0.3,0-0.7,0-1.1-0.1c-0.4-0.1-0.8-0.2-1.4-0.5
			c-0.2-0.1-0.1-0.1-0.2-0.1l-0.1,0l-0.2-0.2c-0.2-0.2-0.4-0.3-0.6-0.5c-0.4-0.4-0.6-0.8-0.8-1.3c-0.4-0.9-0.4-1.7-0.3-2.4
			c0.1-1.3,0.5-2.3,0.9-3.2c0.8-1.8,1.8-3.3,2.8-4.8c1-1.5,2.1-2.9,3.1-4.2c1.1-1.4,2.2-2.7,3.3-4c1.1-1.3,2.3-2.6,3.5-3.8l3.5,3.4
			c-1.1,1.1-2.1,2.2-3.2,3.2c-1.1,1-2.2,2.1-3.3,3.1c-2.2,2-4.5,4-6.9,5.9c-2.4,1.9-4.9,3.7-7.8,5.1c-1.5,0.7-3,1.4-5,1.6
			c-1,0.1-2.1,0.1-3.3-0.4l-0.4-0.2c-0.2-0.1-0.3-0.2-0.5-0.3c-0.5-0.3-0.2-0.2-0.7-0.5c-0.5-0.4-1-1-1.3-1.7
			c-0.3-0.7-0.4-1.3-0.5-1.9c0-0.6,0-1.2,0.1-1.7c0.2-1,0.5-1.9,0.8-2.7c0.7-1.6,1.6-2.9,2.5-4.2c1.8-2.6,3.8-4.9,5.8-7.1
			c2-2.2,4.2-4.3,6.3-6.4c1.1-1,2.2-2,3.3-3c1.1-1,2.2-2,3.4-3l3.3,3.6c-1.4,1.3-2.7,2.5-4.1,3.7c-1.4,1.2-2.8,2.4-4.2,3.5
			c-2.9,2.3-5.8,4.5-9,6.5c-1.6,1-3.2,2-4.9,2.9c-1.7,0.9-3.5,1.7-5.5,2.2c-1,0.3-2.1,0.4-3.3,0.4c-0.6,0-1.3-0.1-1.9-0.3
			c-0.3-0.1-0.7-0.2-1-0.3c-0.3-0.2-0.6-0.3-1-0.6c-1.1-0.7-2-1.9-2.5-3.3c-0.5-1.4-0.4-2.9-0.1-4.1c0.7-2.4,1.9-4,3.1-5.6
			c1.2-1.5,2.5-2.9,3.9-4.2c2.7-2.6,5.6-4.9,8.6-7.1c2.9-2.2,6-4.3,9-6.3c1.5-1,3.1-2,4.6-3c1.6-1,3.1-1.9,4.7-2.8l2.7,4.1
			c-3.4,2.6-6.9,4.9-10.6,7.1C30,431,26.2,433,22,434.4c-2.1,0.7-4.3,1.3-6.8,1.4c-1.2,0-2.5,0-3.8-0.4c-1.3-0.4-2.7-1.1-3.7-2.1
			c-0.5-0.5-1-1.1-1.3-1.7c-0.4-0.6-0.7-1.2-0.9-1.9c-0.2-0.4-0.2-0.6-0.3-0.8l-0.1-0.2l0-0.1l0-0.1l0-0.1l-0.1-0.5
			c-0.1-0.7-0.2-1.4-0.1-2.2c0.1-1.5,0.6-2.9,1.3-4c0.7-1.2,1.6-2.1,2.4-2.9c1.8-1.6,3.7-2.8,5.6-3.8c1.9-1,3.8-2,5.8-2.8
			c3.8-1.7,7.7-3.3,11.3-5c1.8-0.9,3.6-1.8,5.2-2.8c1.6-1,3.1-2.2,4.2-3.4c0.5-0.6,0.9-1.3,1.1-1.9c0.2-0.3,0.3-1.5,0.3-2.4
			c0.1-1.9-0.1-3.9-0.3-5.9c-0.4-4-1.2-8-1.8-12.2c-0.3-2.1-0.6-4.2-0.7-6.4c-0.1-1.1-0.1-2.3,0-3.5c0.1-1.2,0.3-2.5,1.1-4
			c0.4-0.7,1-1.4,1.8-2c0.8-0.5,1.7-0.8,2.5-0.9c1.6-0.1,2.9,0.2,4.1,0.6c0.6,0.2,1.1,0.4,1.7,0.7c0.3,0.1,0.5,0.2,0.7,0.3l0.4,0.2
			l0.4,0.2c1.1,0.6,2.1,1.3,3.1,2.3c0.9,0.9,1.7,2.1,2.2,3.3c0.5,1.2,0.9,2.4,1,3.6c0.4,2.4,0.3,4.6,0.3,6.7c0,2.1,0,4.1-0.1,6.1
			c-0.1,2-0.1,3.9,0.2,5.8c0.5,3.8,2,7.4,4.4,10.6c1.3,1.7,2.4,3.6,3.3,5.6c0.8,2,1.4,4.1,1.5,6.2C68.4,418.3,67.4,422.6,65.3,426.2
			z"/>
    </symbol>
</svg>
