<svg xmlns="http://www.w3.org/2000/svg">
  <symbol id="midaspider" viewBox="0 0 300 26">
    <polygon points="0,0.3 0,25.7 5.8,25.7 5.8,14.1 14,23.2 22.2,14.1 22.3,25.7 28,25.7 28,0.3 14,15.4 	"/>
    <rect x="40.4" y="0.3" width="6.5" height="25.5"/>
    <path d="M70.1,0.3H59.2v25.5h10.7c8.2,0,13.8-5.2,13.8-12.7C83.7,5.5,78.1,0.3,70.1,0.3z M70.3,20.6h-4.6V5.5H70	c4.1,0,7.1,3.1,7.1,7.6C77.1,17.5,74.3,20.6,70.3,20.6z"/>
    <path d="M90.9,25.7h6.7l1.8-3.3h11.1l1.8,3.3h6.9L105.1,0.3L90.9,25.7z M102.2,17.5l2.9-5.1l2.8,5.1H102.2z"/>
    <path d="M135.3,7.1c0-1.2,1.1-1.9,2.8-1.9c2.1,0,5.5,1.1,8.1,2.7l2.4-5.1c-2.6-1.7-6.4-2.8-10-2.8c-6.1,0-10.1,3-10.1,7.7 c0,9,13.5,6.3,13.5,10.8c0,1.5-1.3,2.2-3.3,2.2c-2.7,0-6.6-1.5-9.2-3.8l-2.5,5c3,2.5,7.4,4.1,11.6,4.1c5.7,0,10.2-2.7,10.2-7.8 C148.7,9,135.3,11.5,135.3,7.1z"/>
    <path d="M170.6,0.3h-11.1v25.5h6.5v-7.2h4.6c6.5,0,10.3-3.5,10.3-9.4C180.9,3.5,177.1,0.3,170.6,0.3z M170.3,13.5H166V5.4h4.3 c2.8,0,4.5,1.3,4.5,4C174.8,12.1,173.1,13.5,170.3,13.5z"/>
    <rect x="191.5" y="0.3" width="6.5" height="25.5"/>
    <path d="M221.3,0.3h-10.9v25.5h10.7c8.2,0,13.8-5.2,13.8-12.7C234.8,5.5,229.3,0.3,221.3,0.3z M221.5,20.6h-4.6V5.5h4.3 c4.1,0,7.1,3.1,7.1,7.6C228.3,17.5,225.4,20.6,221.5,20.6z"/>
    <polygon points="252,15.5 264.1,15.5 264.1,10.4 252,10.4 252,5.4 265.5,5.4 265.5,0.3 245.5,0.3 245.5,25.7 265.9,25.7 265.9,20.7 252,20.7"/>
    <path d="M294.7,17.3c3-1.5,4.6-4.3,4.6-8.2c0-5.7-3.9-8.9-10.6-8.9h-11.4v25.5h6.5v-7.2h4.9h0.2l3.8,7.2h7.3L294.7,17.3z
		 M288.7,13.5h-4.9V5.4h4.9c2.8,0,4.4,1.3,4.4,4C293.1,12.1,291.5,13.5,288.7,13.5z"/>
  </symbol>
  <symbol id="mspider" viewBox="0 0 24 24">
    <rect y="8" width="4.6" height="1.1"/>
    <rect y="10.3" width="4.6" height="1.1"/>
    <rect y="12.6" width="4.6" height="1.1"/>
    <rect y="14.9" width="4.6" height="1.1"/>
    <polygon points="5.7,16 9.1,16 9.1,11.4 10.3,11.4 10.3,16 13.7,16 13.7,11.4 14.9,11.4 14.9,16 18.3,16 18.3,8 5.7,8"/>
    <rect x="19.4" y="8" width="4.6" height="1.1"/>
    <rect x="19.4" y="10.3" width="4.6" height="1.1"/>
    <rect x="19.4" y="12.6" width="4.6" height="1.1"/>
    <rect x="19.4" y="14.9" width="4.6" height="1.1"/>
  </symbol>
  <symbol id="info" viewBox="0 0 24 24">
    <path d="M10.7,18.1c0.1,0.4,0.4,0.8,0.4,0.8l2.4,0c0.3-0.5,0.3-1.2,0.3-1.2S12,18.4,10.7,18.1z"/>
    <path d="M10.2,3C7.4,4,4.9,2.8,4.6,2.8c-1,2.4-1.3,6.1-1.3,6.1h0.5l0.6-1.1l7,0.4L12,8.6l0.7-0.4l6.6-0.4l0.7,1l0.5,0 c-0.4-3-0.6-5.7-1.5-7.1C16.6,1,14,1.6,10.2,3z"/>
    <path d="M4.8,1.7C4,1.2,3.8,1.8,3.6,2.2c0.6-0.3,1-0.3,1.3-0.2C9,4.3,11.3-0.1,18,0.6C11.4-0.6,7.9,0.1,5.1,1.8 c0.1-0.4-0.2-1.2-0.6-1.2c-1-0.1-1.4,0.7-1.4,0.7S4.5,0.4,4.8,1.7z"/>
    <path d="M22.4,8.9c-0.7-0.4-1.4,0.4-1.8,1.1c0,0,0,0,0,0h-0.7l-0.6,2.8l-6.2-0.4l-1.1-1.9l-0.9,1.9l-6.4,0.3L4,10H3.4
		c-0.5-0.7-1.1-1.4-1.8-1c-1.4,0.8,0,4,0.8,4.1c0.4,0,0.8-0.1,1.1-0.3C5,19,6.7,21.2,10.3,22.8c0.1,0.7,1.7,1.8,2.2,0.6
		c0.5,1,1.9,0.6,2-0.8c2.8-1.2,5.1-5.1,6.2-9.8c0.3,0.1,0.7,0.3,1,0.2C22.4,13,23.9,9.8,22.4,8.9z M12.4,14c0.6-0.1,1-1,1-1
		s0,0.5-0.2,0.9c-0.2,0.5-0.9,0.8-1.4,0.5c-0.5-0.4-0.8-0.9-0.8-0.9S11.9,14,12.4,14z M14.2,18.4c-0.2,0.8-1,2-2,1.8
		c-1.1-0.1-2.4-3-2.4-3s1.3,0.5,2.2,0.4c0.4,0,1.9-0.4,1.9-0.4v-0.7C13.8,16.7,14.4,17.7,14.2,18.4z"/>
    <path d="M13.6,11.7h5l0.5-2.6l-6.6,0.2L13.6,11.7z M15.9,9.7c0.3,0,0.6,0.3,0.6,0.6c0,0.3-0.3,0.6-0.6,0.6s-0.6-0.3-0.6-0.6
		C15.3,10,15.6,9.7,15.9,9.7z"/>
    <path d="M5.5,11.6l5.1,0.1l1.1-2.4L5,9L5.5,11.6z M8.2,9.7c0.3,0,0.6,0.3,0.6,0.6c0,0.3-0.3,0.6-0.6,0.6c-0.3,0-0.6-0.3-0.6-0.6 C7.5,10,7.8,9.7,8.2,9.7z"/>
  </symbol>
  <symbol id="email" viewBox="0 0 24 24">
    <path d="M20,4H4C2.9,4,2,4.9,2,6v0.8L12,13l10-6.3V6C22,4.9,21.1,4,20,4z"/>
    <path d="M12,15.7L2,9.4V18c0,1.1,0.9,2,2,2h16c1.1,0,2-0.9,2-2V9.4L12,15.7z"/>
  </symbol>
  <symbol id="telephone" viewBox="0 0 24 24">
    <path d="M21.6,19.8c-0.3,0.7-1.1,1.2-1.7,1.5C19,21.7,18.1,22,17.2,22c-1.3,0-2.5-0.5-3.7-1c-0.9-0.3-1.7-0.7-2.5-1.2
		c-2.4-1.5-5.3-4.4-6.8-6.8c-0.5-0.8-0.9-1.6-1.2-2.5C2.5,9.3,2,8.1,2,6.8c0-1,0.3-1.8,0.7-2.6c0.4-0.6,0.8-1.4,1.5-1.7
		C4.7,2.2,5.7,2,6.2,2c0.1,0,0.2,0,0.3,0c0.3,0.1,0.6,0.8,0.8,1.1c0.5,0.8,0.9,1.6,1.4,2.4c0.2,0.4,0.7,0.8,0.7,1.3
		c0,0.9-2.6,2.1-2.6,2.9c0,0.4,0.4,0.9,0.6,1.2c1.4,2.6,3.2,4.4,5.8,5.8c0.3,0.2,0.8,0.6,1.2,0.6c0.8,0,2-2.6,2.9-2.6
		c0.4,0,0.9,0.4,1.3,0.7c0.8,0.5,1.6,0.9,2.4,1.4c0.3,0.1,1,0.5,1.1,0.8c0,0.1,0,0.2,0,0.3C22,18.3,21.8,19.3,21.6,19.8z"/>
  </symbol>
  <symbol id="linkedin" viewBox="0 0 24 24">
    <path d="M21,21H17V14.25C17,13.19 15.81,12.31 14.75,12.31C13.69,12.31 13,13.19 13,14.25V21H9V9H13V11C13.66,9.93 15.36,9.24 16.5,9.24C19,9.24 21,11.28 21,13.75V21M7,21H3V9H7V21M5,3A2,2 0 0,1 7,5A2,2 0 0,1 5,7A2,2 0 0,1 3,5A2,2 0 0,1 5,3Z" />
  </symbol>
  <symbol id="portfolio" viewBox="0 0 24 24">
    <path d="M0,9V6.5h24v2.6C24,14.5,0,14.3,0,9z M8.8,4.3c0-0.2,0.2-0.4,0.4-0.4h5.5c0.2,0,0.4,0.2,0.4,0.4v1h1.8V3.5 c0-0.7-0.6-1.2-1.2-1.2H8.3c-0.7,0-1.2,0.6-1.2,1.2v1.8h1.7L8.8,4.3L8.8,4.3z M23.5,12.5v9.2H0.5v-9.4C5,15.5,18.9,15.6,23.5,12.5z M13.3,16h-2.6v1c0,0.7,0.6,1.3,1.3,1.3c0.7,0,1.3-0.6,1.3-1.3V16L13.3,16z" />
  </symbol>
  <symbol id="close" viewBox="0 0 24 24">
    <path d="M19,6.41L17.59,5L12,10.59L6.41,5L5,6.41L10.59,12L5,17.59L6.41,19L12,13.41L17.59,19L19,17.59L13.41,12L19,6.41Z" />
  </symbol>
  <symbol id="expand" viewBox="0 0 24 24">
    <path d="M9.5,13.09L10.91,14.5L6.41,19H10V21H3V14H5V17.59L9.5,13.09M10.91,9.5L9.5,10.91L5,6.41V10H3V3H10V5H6.41L10.91,9.5M14.5,13.09L19,17.59V14H21V21H14V19H17.59L13.09,14.5L14.5,13.09M13.09,9.5L17.59,5H14V3H21V10H19V6.41L14.5,10.91L13.09,9.5Z" />
  </symbol>
  <symbol id="link" viewBox="0 0 24 24">
    <path d="M10.59,13.41C11,13.8 11,14.44 10.59,14.83C10.2,15.22 9.56,15.22 9.17,14.83C7.22,12.88 7.22,9.71 9.17,7.76V7.76L12.71,4.22C14.66,2.27 17.83,2.27 19.78,4.22C21.73,6.17 21.73,9.34 19.78,11.29L18.29,12.78C18.3,11.96 18.17,11.14 17.89,10.36L18.36,9.88C19.54,8.71 19.54,6.81 18.36,5.64C17.19,4.46 15.29,4.46 14.12,5.64L10.59,9.17C9.41,10.34 9.41,12.24 10.59,13.41M13.41,9.17C13.8,8.78 14.44,8.78 14.83,9.17C16.78,11.12 16.78,14.29 14.83,16.24V16.24L11.29,19.78C9.34,21.73 6.17,21.73 4.22,19.78C2.27,17.83 2.27,14.66 4.22,12.71L5.71,11.22C5.7,12.04 5.83,12.86 6.11,13.65L5.64,14.12C4.46,15.29 4.46,17.19 5.64,18.36C6.81,19.54 8.71,19.54 9.88,18.36L13.41,14.83C14.59,13.66 14.59,11.76 13.41,10.59C13,10.2 13,9.56 13.41,9.17Z" />
  </symbol>
  <symbol id="left" viewBox="0 0 24 24">
    <path d="M15.41,16.58L10.83,12L15.41,7.41L14,6L8,12L14,18L15.41,16.58Z" />
  </symbol>
  <symbol id="right" viewBox="0 0 24 24">
    <path d="M8.59,16.58L13.17,12L8.59,7.41L10,6L16,12L10,18L8.59,16.58Z" />
  </symbol>
</svg>