<?xml version="1.0" encoding="UTF-8"?><!DOCTYPE svg PUBLIC "-//W3C//DTD SVG 1.1//EN" "http://www.w3.org/Graphics/SVG/1.1/DTD/svg11.dtd"><svg xmlns="http://www.w3.org/2000/svg" xmlns:xlink="http://www.w3.org/1999/xlink" version="1.1" width="24" height="24" viewBox="0 0 24 24"><path d="M11.9 0C5.3 0 0 5.3 0 11.9c0 4.9 2.9 9 7.1 10.9 0-0.8 0-1.8 0.2-2.7 0.2-1 1.5-6.5 1.5-6.5s-0.4-0.8-0.4-1.9c0-1.8 1-3.1 2.3-3.1 1.1 0 1.6 0.8 1.6 1.8 0 1.1-0.7 2.7-1 4.2 -0.3 1.3 0.7 2.3 1.9 2.3 2.3 0 3.8-2.9 3.8-6.3 0-2.6-1.8-4.5-4.9-4.5 -3.6 0-5.8 2.7-5.8 5.7 0 1 0.3 1.8 0.8 2.3 0.2 0.3 0.3 0.4 0.2 0.7 -0.1 0.2-0.2 0.7-0.2 1C7 16 6.8 16.1 6.5 16c-1.7-0.7-2.4-2.5-2.4-4.5 0-3.4 2.8-7.4 8.5-7.4C17 4.2 20 7.5 20 11c0 4.7-2.6 8.1-6.4 8.1 -1.3 0-2.5-0.7-2.9-1.5 0 0-0.7 2.7-0.8 3.3 -0.3 0.9-0.7 1.8-1.2 2.5 1.1 0.3 2.2 0.5 3.4 0.5C18.7 23.8 24 18.5 24 12 23.7 5.3 18.4 0 11.9 0z" /></svg>
